<svg viewBox="0 0 24 24" xmlns="http://www.w3.org/2000/svg" fill="none" stroke="currentColor" stroke-width="2" stroke-linecap="round" stroke-linejoin="round"><path d="M8.38934,21C7.43869,21,6.40957,20.42683,5.32223,19.28981C4.31579,18.23748,3.93222,17.12400,4.24203,16.15476C4.50601,15.32844,5.24359,14.65768,6.37246,14.19367C4.70535,14.01455,3.10113,13.16670,2.55136,11.16506C2.33666,10.38265,2,5.82820,2,5.26048C2,4.18821,2.31158,3.48574,2.92578,3.17301C3.93954,2.65715,5.48577,3.37931,6.59445,4.22761L6.46090,4.40878L6.59445,4.22761C8.71310,5.84858,10.98178,9.02574,12.00003,10.96963C13.01846,9.02574,15.28710,5.84812,17.40557,4.22761C18.51425,3.37931,20.06091,2.65737,21.07421,3.17301C21.68869,3.48574,22,4.18821,22,5.26048C22,5.82797,21.66336,10.38220,21.44869,11.16484C20.89892,13.16647,19.29449,14.01409,17.62777,14.19367C18.75692,14.65768,19.49398,15.32821,19.75848,16.15476C20.06823,17.12377,19.68447,18.23725,18.67800,19.28981C17.39022,20.63632,16.18377,21.19226,15.09310,20.94132C13.32336,20.53463,12.38043,18.09934,12.00003,16.99174C11.61956,18.09977,10.67733,20.53417,8.90756,20.94132C8.73757,20.98051,8.56491,21,8.38934,21L8.38934,21"/></svg>
