<svg width="170" height="168" viewBox="0 0 170 168" fill="none" xmlns="http://www.w3.org/2000/svg">
	<path d="M29 126L169 14" stroke="#D31121"/>
	<path d="M28.8906 125.781L168.891 14.5469" stroke="#D41121"/>
	<path d="M28.7812 125.562L168.781 15.0938" stroke="#D41221"/>
	<path d="M28.6719 125.344L168.672 15.6406" stroke="#D51221"/>
	<path d="M28.5625 125.125L168.562 16.1875" stroke="#D61320"/>
	<path d="M28.4531 124.906L168.453 16.7344" stroke="#D71420"/>
	<path d="M28.3438 124.688L168.344 17.2812" stroke="#D71420"/>
	<path d="M28.2344 124.469L168.234 17.8281" stroke="#D81520"/>
	<path d="M28.125 124.25L168.125 18.375" stroke="#D91520"/>
	<path d="M28.0156 124.031L168.016 18.9219" stroke="#D91620"/>
	<path d="M27.9062 123.812L167.906 19.4688" stroke="#DA1720"/>
	<path d="M27.7969 123.594L167.797 20.0156" stroke="#DA1720"/>
	<path d="M27.6875 123.375L167.688 20.5625" stroke="#DB1820"/>
	<path d="M27.5781 123.156L167.578 21.1094" stroke="#DC1920"/>
	<path d="M27.4688 122.938L167.469 21.6562" stroke="#DC1920"/>
	<path d="M27.3594 122.719L167.359 22.2031" stroke="#DD1A20"/>
	<path d="M27.25 122.5L167.25 22.75" stroke="#DE1B20"/>
	<path d="M27.1406 122.281L167.141 23.2969" stroke="#DE1B20"/>
	<path d="M27.0312 122.062L167.031 23.8438" stroke="#DF1C20"/>
	<path d="M26.9219 121.844L166.922 24.3906" stroke="#DF1D20"/>
	<path d="M26.8125 121.625L166.812 24.9375" stroke="#E01D20"/>
	<path d="M26.7031 121.406L166.703 25.4844" stroke="#E11E20"/>
	<path d="M26.5938 121.188L166.594 26.0312" stroke="#E11F20"/>
	<path d="M26.4844 120.969L166.484 26.5781" stroke="#E22020"/>
	<path d="M26.375 120.75L166.375 27.125" stroke="#E22020"/>
	<path d="M26.2656 120.531L166.266 27.6719" stroke="#E32120"/>
	<path d="M26.1562 120.312L166.156 28.2188" stroke="#E42220"/>
	<path d="M26.0469 120.094L166.047 28.7656" stroke="#E42320"/>
	<path d="M25.9375 119.875L165.938 29.3125" stroke="#E52320"/>
	<path d="M25.8281 119.656L165.828 29.8594" stroke="#E52421"/>
	<path d="M25.7188 119.438L165.719 30.4062" stroke="#E62521"/>
	<path d="M25.6094 119.219L165.609 30.9531" stroke="#E62621"/>
	<path d="M25.5 119L165.5 31.5" stroke="#E72721"/>
	<path d="M25.3906 118.781L165.391 32.0469" stroke="#E72721"/>
	<path d="M25.2812 118.562L165.281 32.5938" stroke="#E82821"/>
	<path d="M25.1719 118.344L165.172 33.1406" stroke="#E82921"/>
	<path d="M25.0625 118.125L165.062 33.6875" stroke="#E92A21"/>
	<path d="M24.9531 117.906L164.953 34.2344" stroke="#E92B22"/>
	<path d="M24.8438 117.688L164.844 34.7812" stroke="#EA2C22"/>
	<path d="M24.7344 117.469L164.734 35.3281" stroke="#EA2D22"/>
	<path d="M24.625 117.25L164.625 35.875" stroke="#EB2D22"/>
	<path d="M24.5156 117.031L164.516 36.4219" stroke="#EB2E22"/>
	<path d="M24.4062 116.812L164.406 36.9688" stroke="#EC2F22"/>
	<path d="M24.2969 116.594L164.297 37.5156" stroke="#EC3023"/>
	<path d="M24.1875 116.375L164.188 38.0625" stroke="#ED3123"/>
	<path d="M24.0781 116.156L164.078 38.6094" stroke="#ED3223"/>
	<path d="M23.9688 115.938L163.969 39.1562" stroke="#EE3323"/>
	<path d="M23.8594 115.719L163.859 39.7031" stroke="#EE3423"/>
	<path d="M23.75 115.5L163.75 40.25" stroke="#EF3524"/>
	<path d="M23.6406 115.281L163.641 40.7969" stroke="#EF3624"/>
	<path d="M23.5312 115.062L163.531 41.3438" stroke="#F03724"/>
	<path d="M23.4219 114.844L163.422 41.8906" stroke="#F03824"/>
	<path d="M23.3125 114.625L163.312 42.4375" stroke="#F03924"/>
	<path d="M23.2031 114.406L163.203 42.9844" stroke="#F13A25"/>
	<path d="M23.0938 114.188L163.094 43.5312" stroke="#F13B25"/>
	<path d="M22.9844 113.969L162.984 44.0781" stroke="#F23C25"/>
	<path d="M22.875 113.75L162.875 44.625" stroke="#F23C25"/>
	<path d="M22.7656 113.531L162.766 45.1719" stroke="#F23D26"/>
	<path d="M22.6562 113.312L162.656 45.7188" stroke="#F33E26"/>
	<path d="M22.5469 113.094L162.547 46.2656" stroke="#F33F26"/>
	<path d="M22.4375 112.875L162.438 46.8125" stroke="#F44026"/>
	<path d="M22.3281 112.656L162.328 47.3594" stroke="#F44227"/>
	<path d="M22.2188 112.438L162.219 47.9062" stroke="#F44327"/>
	<path d="M22.1094 112.219L162.109 48.4531" stroke="#F54427"/>
	<path d="M22 112L162 49" stroke="#F54528"/>
	<path d="M21.8906 111.781L161.891 49.5469" stroke="#F54628"/>
	<path d="M21.7812 111.562L161.781 50.0938" stroke="#F64728"/>
	<path d="M21.6719 111.344L161.672 50.6406" stroke="#F64828"/>
	<path d="M21.5625 111.125L161.562 51.1875" stroke="#F64929"/>
	<path d="M21.4531 110.906L161.453 51.7344" stroke="#F64A29"/>
	<path d="M21.3438 110.688L161.344 52.2812" stroke="#F74B29"/>
	<path d="M21.2344 110.469L161.234 52.8281" stroke="#F74C2A"/>
	<path d="M21.125 110.25L161.125 53.375" stroke="#F74D2A"/>
	<path d="M21.0156 110.031L161.016 53.9219" stroke="#F84E2A"/>
	<path d="M20.9062 109.812L160.906 54.4688" stroke="#F84F2A"/>
	<path d="M20.7969 109.594L160.797 55.0156" stroke="#F8502B"/>
	<path d="M20.6875 109.375L160.688 55.5625" stroke="#F8512B"/>
	<path d="M20.5781 109.156L160.578 56.1094" stroke="#F9522B"/>
	<path d="M20.4688 108.938L160.469 56.6562" stroke="#F9532C"/>
	<path d="M20.3594 108.719L160.359 57.2031" stroke="#F9552C"/>
	<path d="M20.25 108.5L160.25 57.75" stroke="#F9562C"/>
	<path d="M20.1406 108.281L160.141 58.2969" stroke="#F9572D"/>
	<path d="M20.0312 108.062L160.031 58.8438" stroke="#FA582D"/>
	<path d="M19.9219 107.844L159.922 59.3906" stroke="#FA592D"/>
	<path d="M19.8125 107.625L159.812 59.9375" stroke="#FA5A2E"/>
	<path d="M19.7031 107.406L159.703 60.4844" stroke="#FA5B2E"/>
	<path d="M19.5938 107.188L159.594 61.0312" stroke="#FA5C2E"/>
	<path d="M19.4844 106.969L159.484 61.5781" stroke="#FA5D2E"/>
	<path d="M19.375 106.75L159.375 62.125" stroke="#FB5E2F"/>
	<path d="M19.2656 106.531L159.266 62.6719" stroke="#FB602F"/>
	<path d="M19.1562 106.312L159.156 63.2188" stroke="#FB612F"/>
	<path d="M19.0469 106.094L159.047 63.7656" stroke="#FB6230"/>
	<path d="M18.9375 105.875L158.938 64.3125" stroke="#FB6330"/>
	<path d="M18.8281 105.656L158.828 64.8594" stroke="#FB6430"/>
	<path d="M18.7188 105.438L158.719 65.4062" stroke="#FB6531"/>
	<path d="M18.6094 105.219L158.609 65.9531" stroke="#FB6631"/>
	<path d="M18.5 105L158.5 66.5" stroke="#FC6731"/>
	<path d="M18.3906 104.781L158.391 67.0469" stroke="#FC6832"/>
	<path d="M18.2812 104.562L158.281 67.5938" stroke="#FC6A32"/>
	<path d="M18.1719 104.344L158.172 68.1406" stroke="#FC6B32"/>
	<path d="M18.0625 104.125L158.062 68.6875" stroke="#FC6C33"/>
	<path d="M17.9531 103.906L157.953 69.2344" stroke="#FC6D33"/>
	<path d="M17.8438 103.688L157.844 69.7812" stroke="#FC6E33"/>
	<path d="M17.7344 103.469L157.734 70.3281" stroke="#FC6F34"/>
	<path d="M17.625 103.25L157.625 70.875" stroke="#FC7034"/>
	<path d="M17.5156 103.031L157.516 71.4219" stroke="#FC7134"/>
	<path d="M17.4062 102.812L157.406 71.9688" stroke="#FC7235"/>
	<path d="M17.2969 102.594L157.297 72.5156" stroke="#FC7335"/>
	<path d="M17.1875 102.375L157.188 73.0625" stroke="#FC7435"/>
	<path d="M17.0781 102.156L157.078 73.6094" stroke="#FC7536"/>
	<path d="M16.9688 101.938L156.969 74.1562" stroke="#FD7736"/>
	<path d="M16.8594 101.719L156.859 74.7031" stroke="#FD7836"/>
	<path d="M16.75 101.5L156.75 75.25" stroke="#FD7937"/>
	<path d="M16.6406 101.281L156.641 75.7969" stroke="#FD7A37"/>
	<path d="M16.5312 101.062L156.531 76.3438" stroke="#FD7B37"/>
	<path d="M16.4219 100.844L156.422 76.8906" stroke="#FD7C37"/>
	<path d="M16.3125 100.625L156.312 77.4375" stroke="#FD7D38"/>
	<path d="M16.2031 100.406L156.203 77.9844" stroke="#FD7E38"/>
	<path d="M16.0938 100.188L156.094 78.5312" stroke="#FD7F38"/>
	<path d="M15.9844 99.9688L155.984 79.0781" stroke="#FD8039"/>
	<path d="M15.875 99.75L155.875 79.625" stroke="#FD8139"/>
	<path d="M15.7656 99.5312L155.766 80.1719" stroke="#FD8239"/>
	<path d="M15.6562 99.3125L155.656 80.7188" stroke="#FD833A"/>
	<path d="M15.5469 99.0938L155.547 81.2656" stroke="#FD843A"/>
	<path d="M15.4375 98.875L155.438 81.8125" stroke="#FD853A"/>
	<path d="M15.3281 98.6562L155.328 82.3594" stroke="#FD863B"/>
	<path d="M15.2188 98.4375L155.219 82.9062" stroke="#FD873B"/>
	<path d="M15.1094 98.2188L155.109 83.4531" stroke="#FD883B"/>
	<path d="M15 98L155 84" stroke="#FD893C"/>
	<path d="M14.8906 97.7812L154.891 84.5469" stroke="#FD8A3C"/>
	<path d="M14.7812 97.5625L154.781 85.0938" stroke="#FD8B3C"/>
	<path d="M14.6719 97.3438L154.672 85.6406" stroke="#FD8B3D"/>
	<path d="M14.5625 97.125L154.562 86.1875" stroke="#FD8C3D"/>
	<path d="M14.4531 96.9062L154.453 86.7344" stroke="#FD8D3D"/>
	<path d="M14.3438 96.6875L154.344 87.2812" stroke="#FD8E3E"/>
	<path d="M14.2344 96.4688L154.234 87.8281" stroke="#FD8F3E"/>
	<path d="M14.125 96.25L154.125 88.375" stroke="#FD903E"/>
	<path d="M14.0156 96.0312L154.016 88.9219" stroke="#FD913F"/>
	<path d="M13.9062 95.8125L153.906 89.4688" stroke="#FD923F"/>
	<path d="M13.7969 95.5938L153.797 90.0156" stroke="#FD923F"/>
	<path d="M13.6875 95.375L153.688 90.5625" stroke="#FD933F"/>
	<path d="M13.5781 95.1562L153.578 91.1094" stroke="#FD9440"/>
	<path d="M13.4688 94.9375L153.469 91.6562" stroke="#FD9540"/>
	<path d="M13.3594 94.7188L153.359 92.2031" stroke="#FD9640"/>
	<path d="M13.25 94.5L153.25 92.75" stroke="#FD9741"/>
	<path d="M13.1406 94.2812L153.141 93.2969" stroke="#FD9741"/>
	<path d="M13.0312 94.0625L153.031 93.8438" stroke="#FD9841"/>
	<path d="M12.9219 93.8438L152.922 94.3906" stroke="#FD9942"/>
	<path d="M12.8125 93.625L152.812 94.9375" stroke="#FD9A42"/>
	<path d="M12.7031 93.4062L152.703 95.4844" stroke="#FD9B42"/>
	<path d="M12.5938 93.1875L152.594 96.0312" stroke="#FD9B43"/>
	<path d="M12.4844 92.9688L152.484 96.5781" stroke="#FD9C43"/>
	<path d="M12.375 92.75L152.375 97.125" stroke="#FD9D44"/>
	<path d="M12.2656 92.5312L152.266 97.6719" stroke="#FD9E44"/>
	<path d="M12.1562 92.3125L152.156 98.2188" stroke="#FD9E44"/>
	<path d="M12.0469 92.0938L152.047 98.7656" stroke="#FD9F45"/>
	<path d="M11.9375 91.875L151.938 99.3125" stroke="#FEA045"/>
	<path d="M11.8281 91.6562L151.828 99.8594" stroke="#FEA145"/>
	<path d="M11.7188 91.4375L151.719 100.406" stroke="#FEA246"/>
	<path d="M11.6094 91.2188L151.609 100.953" stroke="#FEA246"/>
	<path d="M11.5 91L151.5 101.5" stroke="#FEA347"/>
	<path d="M11.3906 90.7812L151.391 102.047" stroke="#FEA447"/>
	<path d="M11.2812 90.5625L151.281 102.594" stroke="#FEA447"/>
	<path d="M11.1719 90.3438L151.172 103.141" stroke="#FEA548"/>
	<path d="M11.0625 90.125L151.062 103.688" stroke="#FEA648"/>
	<path d="M10.9531 89.9062L150.953 104.234" stroke="#FEA749"/>
	<path d="M10.8438 89.6875L150.844 104.781" stroke="#FEA749"/>
	<path d="M10.7344 89.4688L150.734 105.328" stroke="#FEA849"/>
	<path d="M10.625 89.25L150.625 105.875" stroke="#FEA94A"/>
	<path d="M10.5156 89.0312L150.516 106.422" stroke="#FEAA4A"/>
	<path d="M10.4062 88.8125L150.406 106.969" stroke="#FEAA4B"/>
	<path d="M10.2969 88.5938L150.297 107.516" stroke="#FEAB4B"/>
	<path d="M10.1875 88.375L150.188 108.062" stroke="#FEAC4C"/>
	<path d="M10.0781 88.1562L150.078 108.609" stroke="#FEAC4C"/>
	<path d="M9.96875 87.9375L149.969 109.156" stroke="#FEAD4D"/>
	<path d="M9.85938 87.7188L149.859 109.703" stroke="#FEAE4D"/>
	<path d="M9.75 87.5L149.75 110.25" stroke="#FEAF4E"/>
	<path d="M9.64062 87.2812L149.641 110.797" stroke="#FEAF4E"/>
	<path d="M9.53125 87.0625L149.531 111.344" stroke="#FEB04F"/>
	<path d="M9.42188 86.8438L149.422 111.891" stroke="#FEB14F"/>
	<path d="M9.3125 86.625L149.312 112.438" stroke="#FEB150"/>
	<path d="M9.20312 86.4062L149.203 112.984" stroke="#FEB250"/>
	<path d="M9.09375 86.1875L149.094 113.531" stroke="#FEB351"/>
	<path d="M8.98438 85.9688L148.984 114.078" stroke="#FEB451"/>
	<path d="M8.875 85.75L148.875 114.625" stroke="#FEB452"/>
	<path d="M8.76562 85.5312L148.766 115.172" stroke="#FEB552"/>
	<path d="M8.65625 85.3125L148.656 115.719" stroke="#FEB653"/>
	<path d="M8.54688 85.0938L148.547 116.266" stroke="#FEB654"/>
	<path d="M8.4375 84.875L148.438 116.812" stroke="#FEB754"/>
	<path d="M8.32812 84.6562L148.328 117.359" stroke="#FEB855"/>
	<path d="M8.21875 84.4375L148.219 117.906" stroke="#FEB955"/>
	<path d="M8.10938 84.2188L148.109 118.453" stroke="#FEB956"/>
	<path d="M8 84L148 119" stroke="#FEBA57"/>
	<path d="M7.89062 83.7812L147.891 119.547" stroke="#FEBB57"/>
	<path d="M7.78125 83.5625L147.781 120.094" stroke="#FEBB58"/>
	<path d="M7.67188 83.3438L147.672 120.641" stroke="#FEBC59"/>
	<path d="M7.5625 83.125L147.562 121.188" stroke="#FEBD59"/>
	<path d="M7.45312 82.9062L147.453 121.734" stroke="#FEBD5A"/>
	<path d="M7.34375 82.6875L147.344 122.281" stroke="#FEBE5B"/>
	<path d="M7.23438 82.4688L147.234 122.828" stroke="#FEBF5B"/>
	<path d="M7.125 82.25L147.125 123.375" stroke="#FEC05C"/>
	<path d="M7.01562 82.0312L147.016 123.922" stroke="#FEC05D"/>
	<path d="M6.90625 81.8125L146.906 124.469" stroke="#FEC15D"/>
	<path d="M6.79688 81.5938L146.797 125.016" stroke="#FEC25E"/>
	<path d="M6.6875 81.375L146.688 125.562" stroke="#FEC25F"/>
	<path d="M6.57812 81.1562L146.578 126.109" stroke="#FEC35F"/>
	<path d="M6.46875 80.9375L146.469 126.656" stroke="#FEC460"/>
	<path d="M6.35938 80.7188L146.359 127.203" stroke="#FEC461"/>
	<path d="M6.25 80.5L146.25 127.75" stroke="#FEC562"/>
	<path d="M6.14062 80.2812L146.141 128.297" stroke="#FEC662"/>
	<path d="M6.03125 80.0625L146.031 128.844" stroke="#FEC763"/>
	<path d="M5.92188 79.8438L145.922 129.391" stroke="#FEC764"/>
	<path d="M5.8125 79.625L145.812 129.938" stroke="#FEC864"/>
	<path d="M5.70312 79.4062L145.703 130.484" stroke="#FEC965"/>
	<path d="M5.59375 79.1875L145.594 131.031" stroke="#FEC966"/>
	<path d="M5.48438 78.9688L145.484 131.578" stroke="#FECA67"/>
	<path d="M5.375 78.75L145.375 132.125" stroke="#FECA67"/>
	<path d="M5.26562 78.5312L145.266 132.672" stroke="#FECB68"/>
	<path d="M5.15625 78.3125L145.156 133.219" stroke="#FECC69"/>
	<path d="M5.04688 78.0938L145.047 133.766" stroke="#FECC6A"/>
	<path d="M4.9375 77.875L144.938 134.312" stroke="#FECD6B"/>
	<path d="M4.82812 77.6562L144.828 134.859" stroke="#FECE6B"/>
	<path d="M4.71875 77.4375L144.719 135.406" stroke="#FECE6C"/>
	<path d="M4.60938 77.2188L144.609 135.953" stroke="#FECF6D"/>
	<path d="M4.5 77L144.5 136.5" stroke="#FED06E"/>
	<path d="M4.39062 76.7812L144.391 137.047" stroke="#FED06E"/>
	<path d="M4.28125 76.5625L144.281 137.594" stroke="#FED16F"/>
	<path d="M4.17188 76.3438L144.172 138.141" stroke="#FED170"/>
	<path d="M4.0625 76.125L144.062 138.688" stroke="#FED271"/>
	<path d="M3.95312 75.9062L143.953 139.234" stroke="#FED372"/>
	<path d="M3.84375 75.6875L143.844 139.781" stroke="#FED372"/>
	<path d="M3.73438 75.4688L143.734 140.328" stroke="#FED473"/>
	<path d="M3.625 75.25L143.625 140.875" stroke="#FED474"/>
	<path d="M3.51562 75.0312L143.516 141.422" stroke="#FED575"/>
	<path d="M3.40625 74.8125L143.406 141.969" stroke="#FED575"/>
	<path d="M3.29688 74.5938L143.297 142.516" stroke="#FED676"/>
	<path d="M3.1875 74.375L143.188 143.062" stroke="#FED777"/>
	<path d="M3.07812 74.1562L143.078 143.609" stroke="#FED778"/>
	<path d="M2.96875 73.9375L142.969 144.156" stroke="#FED879"/>
	<path d="M2.85938 73.7188L142.859 144.703" stroke="#FED879"/>
	<path d="M2.75 73.5L142.75 145.25" stroke="#FED97A"/>
	<path d="M2.64062 73.2812L142.641 145.797" stroke="#FED97B"/>
	<path d="M2.53125 73.0625L142.531 146.344" stroke="#FEDA7C"/>
	<path d="M2.42188 72.8438L142.422 146.891" stroke="#FEDA7D"/>
	<path d="M2.3125 72.625L142.312 147.438" stroke="#FEDB7D"/>
	<path d="M2.20312 72.4062L142.203 147.984" stroke="#FEDB7E"/>
	<path d="M2.09375 72.1875L142.094 148.531" stroke="#FEDC7F"/>
	<path d="M1.98438 71.9688L141.984 149.078" stroke="#FEDC80"/>
	<path d="M1.875 71.75L141.875 149.625" stroke="#FEDD81"/>
	<path d="M1.76562 71.5312L141.766 150.172" stroke="#FEDD81"/>
	<path d="M1.65625 71.3125L141.656 150.719" stroke="#FEDE82"/>
	<path d="M1.54688 71.0938L141.547 151.266" stroke="#FEDE83"/>
	<path d="M1.4375 70.875L141.438 151.812" stroke="#FEDF84"/>
	<path d="M1.32812 70.6562L141.328 152.359" stroke="#FEDF84"/>
	<path d="M1.21875 70.4375L141.219 152.906" stroke="#FEDF85"/>
	<path d="M1.10938 70.2188L141.109 153.453" stroke="#FEE086"/>
	<path d="M1 70L141 154" stroke="#FEE087"/>
</svg>
