<svg width="360" height="101.843" viewBox="0 0 360 101.843" xmlns="http://www.w3.org/2000/svg">
  <path d="M0.000,0.000L0.000,101.843L101.843,101.843L101.843,0.000L0.000,0.000Z" style="fill: rgb(16, 15, 13);" />
  <path d="M39.271,21.824L24.733,21.824L24.733,44.297ZM24.733,57.545L24.733,80.019L39.271,80.019ZM56.741,33.463L56.741,45.102L81.475,45.102L81.474,56.741L56.741,56.741L56.741,80.020L37.919,50.922L56.741,21.824L84.384,21.824L84.384,33.463L56.741,33.463Z" style="fill: rgb(255, 255, 255);" />
  <path d="M134.191,28.938L143.114,18.103L149.486,18.103L140.494,28.760L150.265,44.091L143.573,44.091L136.634,33.363L134.191,36.267L134.191,44.091L128.456,44.091L128.456,18.103L134.191,18.103L134.191,28.938Z" style="fill: rgb(16, 15, 13);" />
  <path d="M168.359,44.091L159.367,26.708L159.367,44.091L154.056,44.091L154.056,18.103L160.782,18.103L169.422,35.735L169.422,18.103L174.733,18.103L174.733,44.091L168.359,44.091Z" style="fill: rgb(16, 15, 13);" />
  <path d="M188.657,40.410L191.277,40.410L191.277,44.091L180.337,44.091L180.337,40.410L182.956,40.410L182.956,21.786L180.337,21.786L180.337,18.103L191.277,18.103L191.277,21.786L188.657,21.786L188.657,40.410Z" style="fill: rgb(16, 15, 13);" />
  <path d="M206.774,30.885L216.228,30.885L216.228,44.516L212.617,44.516L212.050,41.471C210.563,43.384,208.227,44.516,205.536,44.516C199.021,44.516,195.197,40.090,195.197,31.664C195.197,21.750,200.013,17.644,206.634,17.644C212.334,17.644,215.626,21.008,215.661,27.132L210.031,27.557C209.962,23.273,208.298,22.176,206.244,22.176C203.483,22.176,201.251,24.335,201.251,31.415C201.251,37.789,203.340,40.020,206.456,40.020C208.863,40.020,211.059,38.497,211.200,35.027L206.774,35.027L206.774,30.885Z" style="fill: rgb(16, 15, 13);" />
  <path d="M242.535,44.091L236.766,44.091L236.766,33.540L227.914,33.540L227.914,44.091L222.178,44.091L222.178,18.103L227.914,18.103L227.914,28.831L236.766,28.831L236.766,18.103L242.535,18.103L242.535,44.091Z" style="fill: rgb(16, 15, 13);" />
  <path d="M253.655,22.741L246.787,22.741L246.787,18.103L266.295,18.103L266.295,22.741L259.426,22.741L259.426,44.091L253.655,44.091L253.655,22.741Z" style="fill: rgb(16, 15, 13);" />
  <path d="M142.547,76.242L134.191,76.242L134.191,86.580L128.456,86.580L128.456,60.593L143.785,60.593L143.785,65.231L134.191,65.231L134.191,71.745L142.547,71.745L142.547,76.242Z" style="fill: rgb(16, 15, 13);" />
  <path d="M163.632,73.374C163.632,67.356,162.075,64.735,158.747,64.735C155.525,64.735,153.436,67.319,153.436,73.516C153.436,79.677,155.029,82.510,158.569,82.510C162.004,82.510,163.632,79.818,163.632,73.374ZZM147.417,73.693C147.417,65.055,151.878,60.134,158.924,60.134C166.147,60.134,169.650,64.947,169.650,73.268C169.650,82.014,165.828,87.005,158.392,87.005C150.958,87.005,147.417,82.155,147.417,73.693Z" style="fill: rgb(16, 15, 13);" />
  <path d="M188.841,60.593L194.506,60.593L194.506,77.268C194.506,83.464,191.178,87.005,184.133,87.005C176.662,87.005,174.078,83.252,174.078,77.056L174.078,60.593L179.707,60.593L179.707,75.535C179.707,80.066,180.592,82.438,184.309,82.438C188.027,82.438,188.841,80.244,188.841,75.569L188.841,60.593Z" style="fill: rgb(16, 15, 13);" />
  <path d="M214.973,86.580L205.980,69.198L205.980,86.580L200.669,86.580L200.669,60.593L207.396,60.593L216.035,78.225L216.035,60.593L221.346,60.593L221.346,86.580L214.973,86.580Z" style="fill: rgb(16, 15, 13);" />
  <path d="M234.764,81.908C239.331,81.908,241.740,79.783,241.740,73.409C241.740,67.284,239.545,65.231,234.764,65.231L233.384,65.231L233.384,81.908ZM227.649,86.580L227.649,60.593L234.020,60.593C243.863,60.593,247.653,64.913,247.653,73.056C247.653,82.084,243.863,86.580,233.951,86.580L227.649,86.580Z" style="fill: rgb(16, 15, 13);" />
  <path d="M261.427,65.869L261.427,65.869ZL258.170,76.207L264.719,76.207ZM265.074,60.593L273.819,86.580L267.941,86.580L265.959,80.597L256.966,80.597L255.054,86.580L249.353,86.580L257.921,60.593L265.074,60.593Z" style="fill: rgb(16, 15, 13);" />
  <path d="M280.723,65.231L273.856,65.231L273.856,60.593L293.364,60.593L293.364,65.231L286.495,65.231L286.495,86.580L280.723,86.580L280.723,65.231Z" style="fill: rgb(16, 15, 13);" />
  <path d="M306.075,82.899L308.695,82.899L308.695,86.580L297.755,86.580L297.755,82.899L300.374,82.899L300.374,64.276L297.755,64.276L297.755,60.593L308.695,60.593L308.695,64.276L306.075,64.276L306.075,82.899Z" style="fill: rgb(16, 15, 13);" />
  <path d="M328.911,73.374C328.911,67.356,327.355,64.735,324.026,64.735C320.804,64.735,318.716,67.319,318.716,73.516C318.716,79.677,320.309,82.510,323.849,82.510C327.284,82.510,328.911,79.818,328.911,73.374ZZM312.697,73.693C312.697,65.055,317.157,60.134,324.204,60.134C331.426,60.134,334.931,64.947,334.931,73.268C334.931,82.014,331.108,87.005,323.672,87.005C316.237,87.005,312.697,82.155,312.697,73.693Z" style="fill: rgb(16, 15, 13);" />
  <path d="M353.626,86.580L344.634,69.198L344.634,86.580L339.323,86.580L339.323,60.593L346.050,60.593L354.689,78.225L354.689,60.593L360.000,60.593L360.000,86.580L353.626,86.580Z" style="fill: rgb(16, 15, 13);" />
</svg>