<svg id="logo" xmlns="http://www.w3.org/2000/svg" viewBox="0 0 600 300">
  <rect x="60" y="48" width="168" height="168" fill="none"></rect>
  <g id="ova">
    <path d="M264.6435546875,171.2578125l-13.5,32.7421875h6.6328125l3.1640625-7.96875h14.5546875l3.3984375,7.96875h6.6796875l-14.4609375-32.7421875h-6.46875ZM262.8623046875,191.2265625l5.0390625-12.9609375,5.53125,12.9609375h-10.5703125Z"></path>
    <path d="M293.6513671875,198.046875c-1.2578125-1.25-1.88671875-2.8984375-1.88671875-4.9453125,0-2.09375.625-3.75390625,1.875-4.98046875s2.859375-1.83984375,4.828125-1.83984375c1.828125,0,3.765625.59375,5.8125,1.78125v-4.8984375c-2.0625-.984375-4.3671875-1.4765625-6.9140625-1.4765625-3.4375,0-6.23828125,1.0625-8.40234375,3.1875s-3.24609375,4.9296875-3.24609375,8.4140625c0,3.359375,1.10546875,6.0546875,3.31640625,8.0859375s5.08984375,3.046875,8.63671875,3.046875c2.40625,0,4.7421875-.4609375,7.0078125-1.3828125v-4.6640625c-2.4375,1.03125-4.4375,1.546875-6,1.546875-2.09375,0-3.76953125-.625-5.02734375-1.875Z"></path>
    <path d="M326.59912109375,200.4375c-.671875,0-1.0078125-.4140625-1.0078125-1.2421875v-10.7109375c0-2.140625-.7421875-3.80859375-2.2265625-5.00390625s-3.6328125-1.79296875-6.4453125-1.79296875c-3.28125,0-6.1171875.9453125-8.5078125,2.8359375v5.1796875c1.078125-1.1875,2.2734375-2.0859375,3.5859375-2.6953125s2.6328125-.9140625,3.9609375-.9140625c2.59375,0,3.890625,1.0703125,3.890625,3.2109375v1.0078125l-4.6640625,1.359375c-2.8125.8125-4.78125,1.765625-5.90625,2.859375s-1.6875,2.5859375-1.6875,4.4765625c0,1.484375.56640625,2.7578125,1.69921875,3.8203125s2.48828125,1.59375,4.06640625,1.59375c2.21875,0,4.4296875-.78125,6.6328125-2.34375.21875.875.60546875,1.484375,1.16015625,1.828125s1.34765625.515625,2.37890625.515625c1.671875,0,3.515625-.6171875,5.53125-1.8515625v-3.328125c-.34375.3125-.76953125.58984375-1.27734375.83203125s-.90234375.36328125-1.18359375.36328125ZM319.84912109375,199.0546875c-1.265625,1.15625-2.53125,1.734375-3.796875,1.734375-.75,0-1.37890625-.2421875-1.88671875-.7265625s-.76171875-1.125-.76171875-1.921875c0-.71875.21484375-1.328125.64453125-1.828125s1.1015625-.9921875,2.015625-1.4765625,2.17578125-1,3.78515625-1.546875v5.765625Z"></path>
    <path d="M346.546875,182.6015625c-1.734375-.609375-3.3671875-.9140625-4.8984375-.9140625-1.984375,0-3.83203125.48046875-5.54248046875,1.44140625-1.7109375.9609375-3.0546875,2.28515625-4.03125,3.97265625s-1.46484375,3.5625-1.46484375,5.625c0,3.484375,1.05078125,6.234375,3.15234375,8.25s4.90185546875,3.0234375,8.40185546875,3.0234375h10.125v-32.7421875h-5.7421875v11.34375ZM346.546875,199.59375h-3.0234375c-4.671875,0-7.00732421875-2.3515625-7.00732421875-7.0546875,0-1.953125.57373046875-3.53125,1.72216796875-4.734375s2.68359375-1.8046875,4.60546875-1.8046875c1.28125,0,2.515625.3046875,3.703125.9140625v12.6796875Z"></path>
    <path d="M367.38671875,181.6875c-3.25,0-5.88671875,1.0546875-7.91015625,3.1640625s-3.03515625,4.828125-3.03515625,8.15625c0,3.453125,1.09375,6.21875,3.28125,8.296875s5.0078125,3.1171875,8.4609375,3.1171875c3.65625,0,6.765625-.90625,9.328125-2.71875v-4.2890625c-1.359375.96875-2.67578125,1.69140625-3.94921875,2.16796875s-2.59765625.71484375-3.97265625.71484375c-2.140625,0-3.82421875-.52734375-5.05078125-1.58203125s-1.95703125-2.55859375-2.19140625-4.51171875h15.4921875v-.8671875c0-3.640625-.9375-6.4921875-2.8125-8.5546875s-4.421875-3.09375-7.640625-3.09375ZM362.44140625,190.7109375c.234375-1.671875.79296875-2.9375,1.67578125-3.796875s2.05078125-1.2890625,3.50390625-1.2890625c1.421875,0,2.5390625.44921875,3.3515625,1.34765625s1.296875,2.14453125,1.453125,3.73828125h-9.984375Z"></path>
    <path d="M409.451171875,181.6875c-1.46875,0-2.81640625.34765625-4.04296875,1.04296875s-2.45703125,1.80078125-3.69140625,3.31640625c-.578125-1.328125-1.44921875-2.38671875-2.61328125-3.17578125s-2.58984375-1.18359375-4.27734375-1.18359375c-1.40625,0-2.6484375.28515625-3.7265625.85546875s-2.140625,1.44921875-3.1875,2.63671875v-3.0703125h-5.765625v21.890625h5.765625v-14.5546875c.890625-1.1875,1.7265625-2.05078125,2.5078125-2.58984375s1.640625-.80859375,2.578125-.80859375c1.15625,0,2.078125.42578125,2.765625,1.27734375s1.03125,2.02734375,1.03125,3.52734375v13.1484375h5.7421875v-14.5546875c1.625-2.265625,3.3203125-3.3984375,5.0859375-3.3984375,1.234375,0,2.17578125.4375,2.82421875,1.3125s.97265625,2.0703125.97265625,3.5859375v13.0546875h5.765625v-14.015625c0-2.515625-.7109375-4.52734375-2.1328125-6.03515625s-3.2890625-2.26171875-5.6015625-2.26171875Z"></path>
    <polygon points="430.080078125 193.875 424.900390625 182.109375 418.666015625 182.109375 427.173828125 199.96875 420.212890625 215.0390625 426.400390625 215.0390625 441.517578125 182.109375 435.330078125 182.109375 430.080078125 193.875"></polygon>
    <polygon points="267.91650390625 144.28125 258.65869140625 123.2578125 251.97900390625 123.2578125 266.90869140625 156.421875 269.11181640625 156.421875 283.57275390625 123.2578125 276.93994140625 123.2578125 267.91650390625 144.28125"></polygon>
    <rect x="286.40234375" y="134.109375" width="5.765625" height="21.890625"></rect>
    <path d="M287,129.52734375c.6484375.6640625,1.41015625.99609375,2.28515625.99609375.90625,0,1.67578125-.33203125,2.30859375-.99609375s.94921875-1.42578125.94921875-2.28515625c0-.890625-.3203125-1.65625-.9609375-2.296875s-1.40625-.9609375-2.296875-.9609375c-.859375,0-1.6171875.31640625-2.2734375.94921875s-.984375,1.40234375-.984375,2.30859375c0,.859375.32421875,1.62109375.97265625,2.28515625Z"></path>
    <path d="M306.28271484375,151.67578125c-.609375.3515625-1.40625.52734375-2.390625.52734375-1.921875,0-4.2890625-.78125-7.1015625-2.34375v4.8046875c.890625.484375,2.01171875.8984375,3.36328125,1.2421875s2.80859375.515625,4.37109375.515625c2.5,0,4.484375-.60546875,5.953125-1.81640625s2.203125-2.87109375,2.203125-4.98046875c0-1.5-.50390625-2.78515625-1.51171875-3.85546875s-2.76171875-2.23828125-5.26171875-3.50390625c-1.75-.875-2.8203125-1.4765625-3.2109375-1.8046875s-.5859375-.65625-.5859375-.984375c0-.578125.234375-1.0234375.703125-1.3359375s1.1171875-.46875,1.9453125-.46875c.984375,0,2.1015625.21484375,3.3515625.64453125s2.421875.99609375,3.515625,1.69921875v-4.6171875c-1.1875-.59375-2.3125-1.02734375-3.375-1.30078125s-2.1953125-.41015625-3.3984375-.41015625c-2.46875,0-4.4609375.578125-5.9765625,1.734375s-2.2734375,2.703125-2.2734375,4.640625c0,1.359375.421875,2.53515625,1.265625,3.52734375s2.1484375,1.91015625,3.9140625,2.75390625c2.296875,1.125,3.6640625,1.8359375,4.1015625,2.1328125s.765625.5859375.984375.8671875.328125.59375.328125.9375c0,.578125-.3046875,1.04296875-.9140625,1.39453125Z"></path>
    <path d="M331.09765625,156h5.765625v-21.890625h-5.765625v14.5078125c-.546875,1.078125-1.265625,1.9140625-2.15625,2.5078125s-1.8203125.890625-2.7890625.890625c-1.171875,0-2.11328125-.37109375-2.82421875-1.11328125s-1.06640625-1.82421875-1.06640625-3.24609375v-13.546875h-5.7421875v14.015625c0,2.46875.71875,4.46875,2.15625,6s3.328125,2.296875,5.671875,2.296875c2.421875,0,4.671875-1.1328125,6.75-3.3984375v2.9765625Z"></path>
    <path d="M362.49609375,154.5703125v-3.328125c-.34375.3125-.76953125.58984375-1.27734375.83203125s-.90234375.36328125-1.18359375.36328125c-.671875,0-1.0078125-.4140625-1.0078125-1.2421875v-10.7109375c0-2.140625-.7421875-3.80859375-2.2265625-5.00390625s-3.6328125-1.79296875-6.4453125-1.79296875c-3.28125,0-6.1171875.9453125-8.5078125,2.8359375v5.1796875c1.078125-1.1875,2.2734375-2.0859375,3.5859375-2.6953125s2.6328125-.9140625,3.9609375-.9140625c2.59375,0,3.890625,1.0703125,3.890625,3.2109375v1.0078125l-4.6640625,1.359375c-2.8125.8125-4.78125,1.765625-5.90625,2.859375s-1.6875,2.5859375-1.6875,4.4765625c0,1.484375.56640625,2.7578125,1.69921875,3.8203125s2.48828125,1.59375,4.06640625,1.59375c2.21875,0,4.4296875-.78125,6.6328125-2.34375.21875.875.60546875,1.484375,1.16015625,1.828125s1.34765625.515625,2.37890625.515625c1.671875,0,3.515625-.6171875,5.53125-1.8515625ZM353.28515625,151.0546875c-1.265625,1.15625-2.53125,1.734375-3.796875,1.734375-.75,0-1.37890625-.2421875-1.88671875-.7265625s-.76171875-1.125-.76171875-1.921875c0-.71875.21484375-1.328125.64453125-1.828125s1.1015625-.9921875,2.015625-1.4765625,2.17578125-1,3.78515625-1.546875v5.765625Z"></path>
    <rect x="365.515625" y="123.2578125" width="5.765625" height="32.7421875"></rect>
    <rect x="376.7890625" y="134.109375" width="5.765625" height="21.890625"></rect>
    <path d="M379.671875,130.5234375c.90625,0,1.67578125-.33203125,2.30859375-.99609375s.94921875-1.42578125.94921875-2.28515625c0-.890625-.3203125-1.65625-.9609375-2.296875s-1.40625-.9609375-2.296875-.9609375c-.859375,0-1.6171875.31640625-2.2734375.94921875s-.984375,1.40234375-.984375,2.30859375c0,.859375.32421875,1.62109375.97265625,2.28515625s1.41015625.99609375,2.28515625.99609375Z"></path>
    <polygon points="406.703125 156 406.703125 151.6875 395.265625 151.6875 406.65625 134.109375 386.546875 134.109375 386.546875 138.46875 397.09375 138.46875 385.6796875 156 406.703125 156"></polygon>
    <path d="M416.796875,143.671875c-2.8125.8125-4.78125,1.765625-5.90625,2.859375s-1.6875,2.5859375-1.6875,4.4765625c0,1.484375.56640625,2.7578125,1.69921875,3.8203125s2.48828125,1.59375,4.06640625,1.59375c2.21875,0,4.4296875-.78125,6.6328125-2.34375.21875.875.60546875,1.484375,1.16015625,1.828125s1.34765625.515625,2.37890625.515625c1.671875,0,3.515625-.6171875,5.53125-1.8515625v-3.328125c-.34375.3125-.76953125.58984375-1.27734375.83203125s-.90234375.36328125-1.18359375.36328125c-.671875,0-1.0078125-.4140625-1.0078125-1.2421875v-10.7109375c0-2.140625-.7421875-3.80859375-2.2265625-5.00390625s-3.6328125-1.79296875-6.4453125-1.79296875c-3.28125,0-6.1171875.9453125-8.5078125,2.8359375v5.1796875c1.078125-1.1875,2.2734375-2.0859375,3.5859375-2.6953125s2.6328125-.9140625,3.9609375-.9140625c2.59375,0,3.890625,1.0703125,3.890625,3.2109375v1.0078125l-4.6640625,1.359375ZM421.4609375,151.0546875c-1.265625,1.15625-2.53125,1.734375-3.796875,1.734375-.75,0-1.37890625-.2421875-1.88671875-.7265625s-.76171875-1.125-.76171875-1.921875c0-.71875.21484375-1.328125.64453125-1.828125s1.1015625-.9921875,2.015625-1.4765625,2.17578125-1,3.78515625-1.546875v5.765625Z"></path>
    <path d="M440.4169921875,150.9609375c-.59375-.609375-.890625-1.40625-.890625-2.390625v-10.1015625h7.5v-4.359375h-7.5v-5.8125h-.46875l-8.6953125,9.234375v.9375h3.421875v10.4765625c0,2.296875.69140625,4.1171875,2.07421875,5.4609375s3.30859375,2.015625,5.77734375,2.015625c1.828125,0,3.78125-.4609375,5.859375-1.3828125v-4.6171875c-1.75.96875-3.296875,1.453125-4.640625,1.453125-1.03125,0-1.84375-.3046875-2.4375-.9140625Z"></path>
    <path d="M453.640625,123.984375c-.859375,0-1.6171875.31640625-2.2734375.94921875s-.984375,1.40234375-.984375,2.30859375c0,.859375.32421875,1.62109375.97265625,2.28515625s1.41015625.99609375,2.28515625.99609375c.90625,0,1.67578125-.33203125,2.30859375-.99609375s.94921875-1.42578125.94921875-2.28515625c0-.890625-.3203125-1.65625-.9609375-2.296875s-1.40625-.9609375-2.296875-.9609375Z"></path>
    <rect x="450.7578125" y="134.109375" width="5.765625" height="21.890625"></rect>
    <path d="M478.82421875,135.1171875c-1.859375-.953125-3.9296875-1.4296875-6.2109375-1.4296875-2.25,0-4.296875.47265625-6.140625,1.41796875s-3.28125,2.2734375-4.3125,3.984375-1.546875,3.66796875-1.546875,5.87109375c0,2.265625.48828125,4.25,1.46484375,5.953125s2.40234375,3.046875,4.27734375,4.03125,3.9609375,1.4765625,6.2578125,1.4765625c2.28125,0,4.37109375-.4921875,6.26953125-1.4765625s3.3359375-2.328125,4.3125-4.03125,1.46484375-3.6875,1.46484375-5.953125c0-2.171875-.5078125-4.1171875-1.5234375-5.8359375s-2.453125-3.0546875-4.3125-4.0078125ZM476.99609375,150.28125c-1.078125,1.25-2.5546875,1.875-4.4296875,1.875-1.796875,0-3.23046875-.65234375-4.30078125-1.95703125s-1.60546875-3.05078125-1.60546875-5.23828125c0-2.109375.546875-3.8046875,1.640625-5.0859375s2.515625-1.921875,4.265625-1.921875c1.859375,0,3.33203125.60546875,4.41796875,1.81640625s1.62890625,2.92578125,1.62890625,5.14453125c0,2.328125-.5390625,4.1171875-1.6171875,5.3671875Z"></path>
    <path d="M507.0419921875,135.99609375c-1.3984375-1.5390625-3.26953125-2.30859375-5.61328125-2.30859375-1.3125,0-2.52734375.26953125-3.64453125.80859375s-2.20703125,1.43359375-3.26953125,2.68359375v-3.0703125h-5.765625v21.890625h5.765625v-14.5546875c.9375-1.21875,1.796875-2.08984375,2.578125-2.61328125s1.6171875-.78515625,2.5078125-.78515625c1.171875,0,2.09765625.4140625,2.77734375,1.2421875s1.01953125,1.953125,1.01953125,3.375v13.3359375h5.7421875v-13.921875c0-2.515625-.69921875-4.54296875-2.09765625-6.08203125Z"></path>
    <path d="M258.77685546875,106.21875c2.7734375,1.46875,5.85546875,2.203125,9.24609375,2.203125,3.4375,0,6.52734375-.72265625,9.26953125-2.16796875s4.8984375-3.4765625,6.46875-6.09375,2.35546875-5.45703125,2.35546875-8.51953125c0-3.140625-.8046875-6.02734375-2.4140625-8.66015625s-3.76953125-4.6484375-6.48046875-6.046875-5.76171875-2.09765625-9.15234375-2.09765625c-3.53125,0-6.65625.73046875-9.375,2.19140625s-4.8515625,3.51171875-6.3984375,6.15234375-2.3203125,5.4609375-2.3203125,8.4609375c0,3.109375.7734375,5.94921875,2.3203125,8.51953125s3.70703125,4.58984375,6.48046875,6.05859375ZM257.94482421875,85.76953125c.953125-1.7265625,2.31640625-3.0703125,4.08984375-4.03125s3.76953125-1.44140625,5.98828125-1.44140625,4.21484375.4765625,5.98828125,1.4296875,3.1484375,2.30078125,4.125,4.04296875,1.46484375,3.69921875,1.46484375,5.87109375c0,3.328125-1.08203125,6.046875-3.24609375,8.15625s-4.92578125,3.1640625-8.28515625,3.1640625c-2.21875,0-4.20703125-.4765625-5.96484375-1.4296875s-3.12890625-2.296875-4.11328125-4.03125-1.4765625-3.6875-1.4765625-5.859375c0-2.1875.4765625-4.14453125,1.4296875-5.87109375Z"></path>
    <path d="M295.88525390625,107.1328125c1.71875.859375,3.4296875,1.2890625,5.1328125,1.2890625,2.09375,0,3.96875-.484375,5.625-1.453125s2.93359375-2.3203125,3.83203125-4.0546875,1.34765625-3.703125,1.34765625-5.90625c0-3.359375-.95703125-6.0859375-2.87109375-8.1796875s-4.43359375-3.140625-7.55859375-3.140625c-1.96875,0-3.8203125.609375-5.5546875,1.828125v-1.40625h-5.71875v32.9296875h5.765625v-11.90625ZM295.88525390625,91.828125c1.015625-.734375,1.8359375-1.21484375,2.4609375-1.44140625s1.2734375-.33984375,1.9453125-.33984375c1.796875,0,3.18359375.6328125,4.16015625,1.8984375s1.46484375,3.015625,1.46484375,5.25c0,2.046875-.546875,3.71875-1.640625,5.015625s-2.546875,1.9453125-4.359375,1.9453125c-1.25,0-2.59375-.4140625-4.03125-1.2421875v-11.0859375Z"></path>
    <path d="M326.63134765625,108.421875c3.65625,0,6.765625-.90625,9.328125-2.71875v-4.2890625c-1.359375.96875-2.67578125,1.69140625-3.94921875,2.16796875s-2.59765625.71484375-3.97265625.71484375c-2.140625,0-3.82421875-.52734375-5.05078125-1.58203125s-1.95703125-2.55859375-2.19140625-4.51171875h15.4921875v-.8671875c0-3.640625-.9375-6.4921875-2.8125-8.5546875s-4.421875-3.09375-7.640625-3.09375c-3.25,0-5.88671875,1.0546875-7.91015625,3.1640625s-3.03515625,4.828125-3.03515625,8.15625c0,3.453125,1.09375,6.21875,3.28125,8.296875s5.0078125,3.1171875,8.4609375,3.1171875ZM322.56494140625,90.9140625c.8828125-.859375,2.05078125-1.2890625,3.50390625-1.2890625,1.421875,0,2.5390625.44921875,3.3515625,1.34765625s1.296875,2.14453125,1.453125,3.73828125h-9.984375c.234375-1.671875.79296875-2.9375,1.67578125-3.796875Z"></path>
    <path d="M346.3603515625,93.4453125c.9375-1.21875,1.796875-2.08984375,2.578125-2.61328125s1.6171875-.78515625,2.5078125-.78515625c1.171875,0,2.09765625.4140625,2.77734375,1.2421875s1.01953125,1.953125,1.01953125,3.375v13.3359375h5.7421875v-13.921875c0-2.515625-.69921875-4.54296875-2.09765625-6.08203125s-3.26953125-2.30859375-5.61328125-2.30859375c-1.3125,0-2.52734375.26953125-3.64453125.80859375s-2.20703125,1.43359375-3.26953125,2.68359375v-3.0703125h-5.765625v21.890625h5.765625v-14.5546875Z"></path>
  </g>
  <path id="symbol" transform="translate(24 24)" fill="#000000" d="m 204,52 -87.13672,69.70898 c -14.93704,11.86507 -35.645554,13.28521 -52.062499,3.57032 L 92,141.59961 176,192 l 0.41602,-2.08203 z M 36,108 37.666016,111.33203 64,164 87.001952,145.60155 Z m 138.9707,85.71484 c 0.0631,0.0379 0.12864,0.071 0.19532,0.10157 -0.0669,-0.0302 -0.13213,-0.0641 -0.19532,-0.10157 z m 0.22071,0.11133 c 0.048,0.0212 0.097,0.0412 0.14648,0.0586 -0.0496,-0.0176 -0.0984,-0.0371 -0.14648,-0.0586 z m 0.14648,0.0586 c 0.0278,0.0104 0.0558,0.0202 0.084,0.0293 -0.0284,-0.009 -0.056,-0.0195 -0.084,-0.0293 z m 0.084,0.0293 c 0.0612,0.0185 0.12266,0.0343 0.18554,0.0469 -0.0626,-0.0127 -0.12448,-0.0283 -0.18554,-0.0469 z" />
</svg>