<svg id="logo" xmlns="http://www.w3.org/2000/svg" viewBox="0 0 240 240">
  <rect x="0" y="0" width="240" height="240" fill="#000000"></rect>
  <path fill="#ffffff" d="m 204,52 -87.13672,69.70898 c -14.93704,11.86507 -35.645554,13.28521 -52.062499,3.57032 L 92,141.59961 176,192 l 0.41602,-2.08203 z M 36,108 37.666016,111.33203 64,164 87.001952,145.60155 Z m 138.9707,85.71484 c 0.0631,0.0379 0.12864,0.071 0.19532,0.10157 -0.0669,-0.0302 -0.13213,-0.0641 -0.19532,-0.10157 z m 0.22071,0.11133 c 0.048,0.0212 0.097,0.0412 0.14648,0.0586 -0.0496,-0.0176 -0.0984,-0.0371 -0.14648,-0.0586 z m 0.14648,0.0586 c 0.0278,0.0104 0.0558,0.0202 0.084,0.0293 -0.0284,-0.009 -0.056,-0.0195 -0.084,-0.0293 z m 0.084,0.0293 c 0.0612,0.0185 0.12266,0.0343 0.18554,0.0469 -0.0626,-0.0127 -0.12448,-0.0283 -0.18554,-0.0469 z" />
</svg>
