<svg id="logo" xmlns="http://www.w3.org/2000/svg" viewBox="24 24 240 240">
  <rect x="24" y="24" width="240" height="240" fill="#000000"></rect>
  <g id="symbol">
    <path d="M88,188,228,76" stroke="rgb(211, 17, 33)" stroke-width="1"></path>
    <path d="M87.890625,187.78125,227.890625,76.546875" stroke="rgb(212, 17, 33)" stroke-width="1"></path>
    <path d="M87.78125,187.5625,227.78125,77.09375" stroke="rgb(212, 18, 33)" stroke-width="1"></path>
    <path d="M87.671875,187.34375,227.671875,77.640625" stroke="rgb(213, 18, 33)" stroke-width="1"></path>
    <path d="M87.5625,187.125,227.5625,78.1875" stroke="rgb(214, 19, 32)" stroke-width="1"></path>
    <path d="M87.453125,186.90625,227.453125,78.734375" stroke="rgb(215, 20, 32)" stroke-width="1"></path>
    <path d="M87.34375,186.6875,227.34375,79.28125" stroke="rgb(215, 20, 32)" stroke-width="1"></path>
    <path d="M87.234375,186.46875,227.234375,79.828125" stroke="rgb(216, 21, 32)" stroke-width="1"></path>
    <path d="M87.125,186.25,227.125,80.375" stroke="rgb(217, 21, 32)" stroke-width="1"></path>
    <path d="M87.015625,186.03125,227.015625,80.921875" stroke="rgb(217, 22, 32)" stroke-width="1"></path>
    <path d="M86.90625,185.8125,226.90625,81.46875" stroke="rgb(218, 23, 32)" stroke-width="1"></path>
    <path d="M86.796875,185.59375,226.796875,82.015625" stroke="rgb(218, 23, 32)" stroke-width="1"></path>
    <path d="M86.6875,185.375,226.6875,82.5625" stroke="rgb(219, 24, 32)" stroke-width="1"></path>
    <path d="M86.578125,185.15625,226.578125,83.109375" stroke="rgb(220, 25, 32)" stroke-width="1"></path>
    <path d="M86.46875,184.9375,226.46875,83.65625" stroke="rgb(220, 25, 32)" stroke-width="1"></path>
    <path d="M86.359375,184.71875,226.359375,84.203125" stroke="rgb(221, 26, 32)" stroke-width="1"></path>
    <path d="M86.25,184.5,226.25,84.75" stroke="rgb(222, 27, 32)" stroke-width="1"></path>
    <path d="M86.140625,184.28125,226.140625,85.296875" stroke="rgb(222, 27, 32)" stroke-width="1"></path>
    <path d="M86.03125,184.0625,226.03125,85.84375" stroke="rgb(223, 28, 32)" stroke-width="1"></path>
    <path d="M85.921875,183.84375,225.921875,86.390625" stroke="rgb(223, 29, 32)" stroke-width="1"></path>
    <path d="M85.8125,183.625,225.8125,86.9375" stroke="rgb(224, 29, 32)" stroke-width="1"></path>
    <path d="M85.703125,183.40625,225.703125,87.484375" stroke="rgb(225, 30, 32)" stroke-width="1"></path>
    <path d="M85.59375,183.1875,225.59375,88.03125" stroke="rgb(225, 31, 32)" stroke-width="1"></path>
    <path d="M85.484375,182.96875,225.484375,88.578125" stroke="rgb(226, 32, 32)" stroke-width="1"></path>
    <path d="M85.375,182.75,225.375,89.125" stroke="rgb(226, 32, 32)" stroke-width="1"></path>
    <path d="M85.265625,182.53125,225.265625,89.671875" stroke="rgb(227, 33, 32)" stroke-width="1"></path>
    <path d="M85.15625,182.3125,225.15625,90.21875" stroke="rgb(228, 34, 32)" stroke-width="1"></path>
    <path d="M85.046875,182.09375,225.046875,90.765625" stroke="rgb(228, 35, 32)" stroke-width="1"></path>
    <path d="M84.9375,181.875,224.9375,91.3125" stroke="rgb(229, 35, 32)" stroke-width="1"></path>
    <path d="M84.828125,181.65625,224.828125,91.859375" stroke="rgb(229, 36, 33)" stroke-width="1"></path>
    <path d="M84.71875,181.4375,224.71875,92.40625" stroke="rgb(230, 37, 33)" stroke-width="1"></path>
    <path d="M84.609375,181.21875,224.609375,92.953125" stroke="rgb(230, 38, 33)" stroke-width="1"></path>
    <path d="M84.5,181,224.5,93.5" stroke="rgb(231, 39, 33)" stroke-width="1"></path>
    <path d="M84.390625,180.78125,224.390625,94.046875" stroke="rgb(231, 39, 33)" stroke-width="1"></path>
    <path d="M84.28125,180.5625,224.28125,94.59375" stroke="rgb(232, 40, 33)" stroke-width="1"></path>
    <path d="M84.171875,180.34375,224.171875,95.140625" stroke="rgb(232, 41, 33)" stroke-width="1"></path>
    <path d="M84.0625,180.125,224.0625,95.6875" stroke="rgb(233, 42, 33)" stroke-width="1"></path>
    <path d="M83.953125,179.90625,223.953125,96.234375" stroke="rgb(233, 43, 34)" stroke-width="1"></path>
    <path d="M83.84375,179.6875,223.84375,96.78125" stroke="rgb(234, 44, 34)" stroke-width="1"></path>
    <path d="M83.734375,179.46875,223.734375,97.328125" stroke="rgb(234, 45, 34)" stroke-width="1"></path>
    <path d="M83.625,179.25,223.625,97.875" stroke="rgb(235, 45, 34)" stroke-width="1"></path>
    <path d="M83.515625,179.03125,223.515625,98.421875" stroke="rgb(235, 46, 34)" stroke-width="1"></path>
    <path d="M83.40625,178.8125,223.40625,98.96875" stroke="rgb(236, 47, 34)" stroke-width="1"></path>
    <path d="M83.296875,178.59375,223.296875,99.515625" stroke="rgb(236, 48, 35)" stroke-width="1"></path>
    <path d="M83.1875,178.375,223.1875,100.0625" stroke="rgb(237, 49, 35)" stroke-width="1"></path>
    <path d="M83.078125,178.15625,223.078125,100.609375" stroke="rgb(237, 50, 35)" stroke-width="1"></path>
    <path d="M82.96875,177.9375,222.96875,101.15625" stroke="rgb(238, 51, 35)" stroke-width="1"></path>
    <path d="M82.859375,177.71875,222.859375,101.703125" stroke="rgb(238, 52, 35)" stroke-width="1"></path>
    <path d="M82.75,177.5,222.75,102.25" stroke="rgb(239, 53, 36)" stroke-width="1"></path>
    <path d="M82.640625,177.28125,222.640625,102.796875" stroke="rgb(239, 54, 36)" stroke-width="1"></path>
    <path d="M82.53125,177.0625,222.53125,103.34375" stroke="rgb(240, 55, 36)" stroke-width="1"></path>
    <path d="M82.421875,176.84375,222.421875,103.890625" stroke="rgb(240, 56, 36)" stroke-width="1"></path>
    <path d="M82.3125,176.625,222.3125,104.4375" stroke="rgb(240, 57, 36)" stroke-width="1"></path>
    <path d="M82.203125,176.40625,222.203125,104.984375" stroke="rgb(241, 58, 37)" stroke-width="1"></path>
    <path d="M82.09375,176.1875,222.09375,105.53125" stroke="rgb(241, 59, 37)" stroke-width="1"></path>
    <path d="M81.984375,175.96875,221.984375,106.078125" stroke="rgb(242, 60, 37)" stroke-width="1"></path>
    <path d="M81.875,175.75,221.875,106.625" stroke="rgb(242, 60, 37)" stroke-width="1"></path>
    <path d="M81.765625,175.53125,221.765625,107.171875" stroke="rgb(242, 61, 38)" stroke-width="1"></path>
    <path d="M81.65625,175.3125,221.65625,107.71875" stroke="rgb(243, 62, 38)" stroke-width="1"></path>
    <path d="M81.546875,175.09375,221.546875,108.265625" stroke="rgb(243, 63, 38)" stroke-width="1"></path>
    <path d="M81.4375,174.875,221.4375,108.8125" stroke="rgb(244, 64, 38)" stroke-width="1"></path>
    <path d="M81.328125,174.65625,221.328125,109.359375" stroke="rgb(244, 66, 39)" stroke-width="1"></path>
    <path d="M81.21875,174.4375,221.21875,109.90625" stroke="rgb(244, 67, 39)" stroke-width="1"></path>
    <path d="M81.109375,174.21875,221.109375,110.453125" stroke="rgb(245, 68, 39)" stroke-width="1"></path>
    <path d="M81,174,221,111" stroke="rgb(245, 69, 40)" stroke-width="1"></path>
    <path d="M80.890625,173.78125,220.890625,111.546875" stroke="rgb(245, 70, 40)" stroke-width="1"></path>
    <path d="M80.78125,173.5625,220.78125,112.09375" stroke="rgb(246, 71, 40)" stroke-width="1"></path>
    <path d="M80.671875,173.34375,220.671875,112.640625" stroke="rgb(246, 72, 40)" stroke-width="1"></path>
    <path d="M80.5625,173.125,220.5625,113.1875" stroke="rgb(246, 73, 41)" stroke-width="1"></path>
    <path d="M80.453125,172.90625,220.453125,113.734375" stroke="rgb(246, 74, 41)" stroke-width="1"></path>
    <path d="M80.34375,172.6875,220.34375,114.28125" stroke="rgb(247, 75, 41)" stroke-width="1"></path>
    <path d="M80.234375,172.46875,220.234375,114.828125" stroke="rgb(247, 76, 42)" stroke-width="1"></path>
    <path d="M80.125,172.25,220.125,115.375" stroke="rgb(247, 77, 42)" stroke-width="1"></path>
    <path d="M80.015625,172.03125,220.015625,115.921875" stroke="rgb(248, 78, 42)" stroke-width="1"></path>
    <path d="M79.90625,171.8125,219.90625,116.46875" stroke="rgb(248, 79, 42)" stroke-width="1"></path>
    <path d="M79.796875,171.59375,219.796875,117.015625" stroke="rgb(248, 80, 43)" stroke-width="1"></path>
    <path d="M79.6875,171.375,219.6875,117.5625" stroke="rgb(248, 81, 43)" stroke-width="1"></path>
    <path d="M79.578125,171.15625,219.578125,118.109375" stroke="rgb(249, 82, 43)" stroke-width="1"></path>
    <path d="M79.46875,170.9375,219.46875,118.65625" stroke="rgb(249, 83, 44)" stroke-width="1"></path>
    <path d="M79.359375,170.71875,219.359375,119.203125" stroke="rgb(249, 85, 44)" stroke-width="1"></path>
    <path d="M79.25,170.5,219.25,119.75" stroke="rgb(249, 86, 44)" stroke-width="1"></path>
    <path d="M79.140625,170.28125,219.140625,120.296875" stroke="rgb(249, 87, 45)" stroke-width="1"></path>
    <path d="M79.03125,170.0625,219.03125,120.84375" stroke="rgb(250, 88, 45)" stroke-width="1"></path>
    <path d="M78.921875,169.84375,218.921875,121.390625" stroke="rgb(250, 89, 45)" stroke-width="1"></path>
    <path d="M78.8125,169.625,218.8125,121.9375" stroke="rgb(250, 90, 46)" stroke-width="1"></path>
    <path d="M78.703125,169.40625,218.703125,122.484375" stroke="rgb(250, 91, 46)" stroke-width="1"></path>
    <path d="M78.59375,169.1875,218.59375,123.03125" stroke="rgb(250, 92, 46)" stroke-width="1"></path>
    <path d="M78.484375,168.96875,218.484375,123.578125" stroke="rgb(250, 93, 46)" stroke-width="1"></path>
    <path d="M78.375,168.75,218.375,124.125" stroke="rgb(251, 94, 47)" stroke-width="1"></path>
    <path d="M78.265625,168.53125,218.265625,124.671875" stroke="rgb(251, 96, 47)" stroke-width="1"></path>
    <path d="M78.15625,168.3125,218.15625,125.21875" stroke="rgb(251, 97, 47)" stroke-width="1"></path>
    <path d="M78.046875,168.09375,218.046875,125.765625" stroke="rgb(251, 98, 48)" stroke-width="1"></path>
    <path d="M77.9375,167.875,217.9375,126.3125" stroke="rgb(251, 99, 48)" stroke-width="1"></path>
    <path d="M77.828125,167.65625,217.828125,126.859375" stroke="rgb(251, 100, 48)" stroke-width="1"></path>
    <path d="M77.71875,167.4375,217.71875,127.40625" stroke="rgb(251, 101, 49)" stroke-width="1"></path>
    <path d="M77.609375,167.21875,217.609375,127.953125" stroke="rgb(251, 102, 49)" stroke-width="1"></path>
    <path d="M77.5,167,217.5,128.5" stroke="rgb(252, 103, 49)" stroke-width="1"></path>
    <path d="M77.390625,166.78125,217.390625,129.046875" stroke="rgb(252, 104, 50)" stroke-width="1"></path>
    <path d="M77.28125,166.5625,217.28125,129.59375" stroke="rgb(252, 106, 50)" stroke-width="1"></path>
    <path d="M77.171875,166.34375,217.171875,130.140625" stroke="rgb(252, 107, 50)" stroke-width="1"></path>
    <path d="M77.0625,166.125,217.0625,130.6875" stroke="rgb(252, 108, 51)" stroke-width="1"></path>
    <path d="M76.953125,165.90625,216.953125,131.234375" stroke="rgb(252, 109, 51)" stroke-width="1"></path>
    <path d="M76.84375,165.6875,216.84375,131.78125" stroke="rgb(252, 110, 51)" stroke-width="1"></path>
    <path d="M76.734375,165.46875,216.734375,132.328125" stroke="rgb(252, 111, 52)" stroke-width="1"></path>
    <path d="M76.625,165.25,216.625,132.875" stroke="rgb(252, 112, 52)" stroke-width="1"></path>
    <path d="M76.515625,165.03125,216.515625,133.421875" stroke="rgb(252, 113, 52)" stroke-width="1"></path>
    <path d="M76.40625,164.8125,216.40625,133.96875" stroke="rgb(252, 114, 53)" stroke-width="1"></path>
    <path d="M76.296875,164.59375,216.296875,134.515625" stroke="rgb(252, 115, 53)" stroke-width="1"></path>
    <path d="M76.1875,164.375,216.1875,135.0625" stroke="rgb(252, 116, 53)" stroke-width="1"></path>
    <path d="M76.078125,164.15625,216.078125,135.609375" stroke="rgb(252, 117, 54)" stroke-width="1"></path>
    <path d="M75.96875,163.9375,215.96875,136.15625" stroke="rgb(253, 119, 54)" stroke-width="1"></path>
    <path d="M75.859375,163.71875,215.859375,136.703125" stroke="rgb(253, 120, 54)" stroke-width="1"></path>
    <path d="M75.75,163.5,215.75,137.25" stroke="rgb(253, 121, 55)" stroke-width="1"></path>
    <path d="M75.640625,163.28125,215.640625,137.796875" stroke="rgb(253, 122, 55)" stroke-width="1"></path>
    <path d="M75.53125,163.0625,215.53125,138.34375" stroke="rgb(253, 123, 55)" stroke-width="1"></path>
    <path d="M75.421875,162.84375,215.421875,138.890625" stroke="rgb(253, 124, 55)" stroke-width="1"></path>
    <path d="M75.3125,162.625,215.3125,139.4375" stroke="rgb(253, 125, 56)" stroke-width="1"></path>
    <path d="M75.203125,162.40625,215.203125,139.984375" stroke="rgb(253, 126, 56)" stroke-width="1"></path>
    <path d="M75.09375,162.1875,215.09375,140.53125" stroke="rgb(253, 127, 56)" stroke-width="1"></path>
    <path d="M74.984375,161.96875,214.984375,141.078125" stroke="rgb(253, 128, 57)" stroke-width="1"></path>
    <path d="M74.875,161.75,214.875,141.625" stroke="rgb(253, 129, 57)" stroke-width="1"></path>
    <path d="M74.765625,161.53125,214.765625,142.171875" stroke="rgb(253, 130, 57)" stroke-width="1"></path>
    <path d="M74.65625,161.3125,214.65625,142.71875" stroke="rgb(253, 131, 58)" stroke-width="1"></path>
    <path d="M74.546875,161.09375,214.546875,143.265625" stroke="rgb(253, 132, 58)" stroke-width="1"></path>
    <path d="M74.4375,160.875,214.4375,143.8125" stroke="rgb(253, 133, 58)" stroke-width="1"></path>
    <path d="M74.328125,160.65625,214.328125,144.359375" stroke="rgb(253, 134, 59)" stroke-width="1"></path>
    <path d="M74.21875,160.4375,214.21875,144.90625" stroke="rgb(253, 135, 59)" stroke-width="1"></path>
    <path d="M74.109375,160.21875,214.109375,145.453125" stroke="rgb(253, 136, 59)" stroke-width="1"></path>
    <path d="M74,160,214,146" stroke="rgb(253, 137, 60)" stroke-width="1"></path>
    <path d="M73.890625,159.78125,213.890625,146.546875" stroke="rgb(253, 138, 60)" stroke-width="1"></path>
    <path d="M73.78125,159.5625,213.78125,147.09375" stroke="rgb(253, 139, 60)" stroke-width="1"></path>
    <path d="M73.671875,159.34375,213.671875,147.640625" stroke="rgb(253, 139, 61)" stroke-width="1"></path>
    <path d="M73.5625,159.125,213.5625,148.1875" stroke="rgb(253, 140, 61)" stroke-width="1"></path>
    <path d="M73.453125,158.90625,213.453125,148.734375" stroke="rgb(253, 141, 61)" stroke-width="1"></path>
    <path d="M73.34375,158.6875,213.34375,149.28125" stroke="rgb(253, 142, 62)" stroke-width="1"></path>
    <path d="M73.234375,158.46875,213.234375,149.828125" stroke="rgb(253, 143, 62)" stroke-width="1"></path>
    <path d="M73.125,158.25,213.125,150.375" stroke="rgb(253, 144, 62)" stroke-width="1"></path>
    <path d="M73.015625,158.03125,213.015625,150.921875" stroke="rgb(253, 145, 63)" stroke-width="1"></path>
    <path d="M72.90625,157.8125,212.90625,151.46875" stroke="rgb(253, 146, 63)" stroke-width="1"></path>
    <path d="M72.796875,157.59375,212.796875,152.015625" stroke="rgb(253, 146, 63)" stroke-width="1"></path>
    <path d="M72.6875,157.375,212.6875,152.5625" stroke="rgb(253, 147, 63)" stroke-width="1"></path>
    <path d="M72.578125,157.15625,212.578125,153.109375" stroke="rgb(253, 148, 64)" stroke-width="1"></path>
    <path d="M72.46875,156.9375,212.46875,153.65625" stroke="rgb(253, 149, 64)" stroke-width="1"></path>
    <path d="M72.359375,156.71875,212.359375,154.203125" stroke="rgb(253, 150, 64)" stroke-width="1"></path>
    <path d="M72.25,156.5,212.25,154.75" stroke="rgb(253, 151, 65)" stroke-width="1"></path>
    <path d="M72.140625,156.28125,212.140625,155.296875" stroke="rgb(253, 151, 65)" stroke-width="1"></path>
    <path d="M72.03125,156.0625,212.03125,155.84375" stroke="rgb(253, 152, 65)" stroke-width="1"></path>
    <path d="M71.921875,155.84375,211.921875,156.390625" stroke="rgb(253, 153, 66)" stroke-width="1"></path>
    <path d="M71.8125,155.625,211.8125,156.9375" stroke="rgb(253, 154, 66)" stroke-width="1"></path>
    <path d="M71.703125,155.40625,211.703125,157.484375" stroke="rgb(253, 155, 66)" stroke-width="1"></path>
    <path d="M71.59375,155.1875,211.59375,158.03125" stroke="rgb(253, 155, 67)" stroke-width="1"></path>
    <path d="M71.484375,154.96875,211.484375,158.578125" stroke="rgb(253, 156, 67)" stroke-width="1"></path>
    <path d="M71.375,154.75,211.375,159.125" stroke="rgb(253, 157, 68)" stroke-width="1"></path>
    <path d="M71.265625,154.53125,211.265625,159.671875" stroke="rgb(253, 158, 68)" stroke-width="1"></path>
    <path d="M71.15625,154.3125,211.15625,160.21875" stroke="rgb(253, 158, 68)" stroke-width="1"></path>
    <path d="M71.046875,154.09375,211.046875,160.765625" stroke="rgb(253, 159, 69)" stroke-width="1"></path>
    <path d="M70.9375,153.875,210.9375,161.3125" stroke="rgb(254, 160, 69)" stroke-width="1"></path>
    <path d="M70.828125,153.65625,210.828125,161.859375" stroke="rgb(254, 161, 69)" stroke-width="1"></path>
    <path d="M70.71875,153.4375,210.71875,162.40625" stroke="rgb(254, 162, 70)" stroke-width="1"></path>
    <path d="M70.609375,153.21875,210.609375,162.953125" stroke="rgb(254, 162, 70)" stroke-width="1"></path>
    <path d="M70.5,153,210.5,163.5" stroke="rgb(254, 163, 71)" stroke-width="1"></path>
    <path d="M70.390625,152.78125,210.390625,164.046875" stroke="rgb(254, 164, 71)" stroke-width="1"></path>
    <path d="M70.28125,152.5625,210.28125,164.59375" stroke="rgb(254, 164, 71)" stroke-width="1"></path>
    <path d="M70.171875,152.34375,210.171875,165.140625" stroke="rgb(254, 165, 72)" stroke-width="1"></path>
    <path d="M70.0625,152.125,210.0625,165.6875" stroke="rgb(254, 166, 72)" stroke-width="1"></path>
    <path d="M69.953125,151.90625,209.953125,166.234375" stroke="rgb(254, 167, 73)" stroke-width="1"></path>
    <path d="M69.84375,151.6875,209.84375,166.78125" stroke="rgb(254, 167, 73)" stroke-width="1"></path>
    <path d="M69.734375,151.46875,209.734375,167.328125" stroke="rgb(254, 168, 73)" stroke-width="1"></path>
    <path d="M69.625,151.25,209.625,167.875" stroke="rgb(254, 169, 74)" stroke-width="1"></path>
    <path d="M69.515625,151.03125,209.515625,168.421875" stroke="rgb(254, 170, 74)" stroke-width="1"></path>
    <path d="M69.40625,150.8125,209.40625,168.96875" stroke="rgb(254, 170, 75)" stroke-width="1"></path>
    <path d="M69.296875,150.59375,209.296875,169.515625" stroke="rgb(254, 171, 75)" stroke-width="1"></path>
    <path d="M69.1875,150.375,209.1875,170.0625" stroke="rgb(254, 172, 76)" stroke-width="1"></path>
    <path d="M69.078125,150.15625,209.078125,170.609375" stroke="rgb(254, 172, 76)" stroke-width="1"></path>
    <path d="M68.96875,149.9375,208.96875,171.15625" stroke="rgb(254, 173, 77)" stroke-width="1"></path>
    <path d="M68.859375,149.71875,208.859375,171.703125" stroke="rgb(254, 174, 77)" stroke-width="1"></path>
    <path d="M68.75,149.5,208.75,172.25" stroke="rgb(254, 175, 78)" stroke-width="1"></path>
    <path d="M68.640625,149.28125,208.640625,172.796875" stroke="rgb(254, 175, 78)" stroke-width="1"></path>
    <path d="M68.53125,149.0625,208.53125,173.34375" stroke="rgb(254, 176, 79)" stroke-width="1"></path>
    <path d="M68.421875,148.84375,208.421875,173.890625" stroke="rgb(254, 177, 79)" stroke-width="1"></path>
    <path d="M68.3125,148.625,208.3125,174.4375" stroke="rgb(254, 177, 80)" stroke-width="1"></path>
    <path d="M68.203125,148.40625,208.203125,174.984375" stroke="rgb(254, 178, 80)" stroke-width="1"></path>
    <path d="M68.09375,148.1875,208.09375,175.53125" stroke="rgb(254, 179, 81)" stroke-width="1"></path>
    <path d="M67.984375,147.96875,207.984375,176.078125" stroke="rgb(254, 180, 81)" stroke-width="1"></path>
    <path d="M67.875,147.75,207.875,176.625" stroke="rgb(254, 180, 82)" stroke-width="1"></path>
    <path d="M67.765625,147.53125,207.765625,177.171875" stroke="rgb(254, 181, 82)" stroke-width="1"></path>
    <path d="M67.65625,147.3125,207.65625,177.71875" stroke="rgb(254, 182, 83)" stroke-width="1"></path>
    <path d="M67.546875,147.09375,207.546875,178.265625" stroke="rgb(254, 182, 84)" stroke-width="1"></path>
    <path d="M67.4375,146.875,207.4375,178.8125" stroke="rgb(254, 183, 84)" stroke-width="1"></path>
    <path d="M67.328125,146.65625,207.328125,179.359375" stroke="rgb(254, 184, 85)" stroke-width="1"></path>
    <path d="M67.21875,146.4375,207.21875,179.90625" stroke="rgb(254, 185, 85)" stroke-width="1"></path>
    <path d="M67.109375,146.21875,207.109375,180.453125" stroke="rgb(254, 185, 86)" stroke-width="1"></path>
    <path d="M67,146,207,181" stroke="rgb(254, 186, 87)" stroke-width="1"></path>
    <path d="M66.890625,145.78125,206.890625,181.546875" stroke="rgb(254, 187, 87)" stroke-width="1"></path>
    <path d="M66.78125,145.5625,206.78125,182.09375" stroke="rgb(254, 187, 88)" stroke-width="1"></path>
    <path d="M66.671875,145.34375,206.671875,182.640625" stroke="rgb(254, 188, 89)" stroke-width="1"></path>
    <path d="M66.5625,145.125,206.5625,183.1875" stroke="rgb(254, 189, 89)" stroke-width="1"></path>
    <path d="M66.453125,144.90625,206.453125,183.734375" stroke="rgb(254, 189, 90)" stroke-width="1"></path>
    <path d="M66.34375,144.6875,206.34375,184.28125" stroke="rgb(254, 190, 91)" stroke-width="1"></path>
    <path d="M66.234375,144.46875,206.234375,184.828125" stroke="rgb(254, 191, 91)" stroke-width="1"></path>
    <path d="M66.125,144.25,206.125,185.375" stroke="rgb(254, 192, 92)" stroke-width="1"></path>
    <path d="M66.015625,144.03125,206.015625,185.921875" stroke="rgb(254, 192, 93)" stroke-width="1"></path>
    <path d="M65.90625,143.8125,205.90625,186.46875" stroke="rgb(254, 193, 93)" stroke-width="1"></path>
    <path d="M65.796875,143.59375,205.796875,187.015625" stroke="rgb(254, 194, 94)" stroke-width="1"></path>
    <path d="M65.6875,143.375,205.6875,187.5625" stroke="rgb(254, 194, 95)" stroke-width="1"></path>
    <path d="M65.578125,143.15625,205.578125,188.109375" stroke="rgb(254, 195, 95)" stroke-width="1"></path>
    <path d="M65.46875,142.9375,205.46875,188.65625" stroke="rgb(254, 196, 96)" stroke-width="1"></path>
    <path d="M65.359375,142.71875,205.359375,189.203125" stroke="rgb(254, 196, 97)" stroke-width="1"></path>
    <path d="M65.25,142.5,205.25,189.75" stroke="rgb(254, 197, 98)" stroke-width="1"></path>
    <path d="M65.140625,142.28125,205.140625,190.296875" stroke="rgb(254, 198, 98)" stroke-width="1"></path>
    <path d="M65.03125,142.0625,205.03125,190.84375" stroke="rgb(254, 199, 99)" stroke-width="1"></path>
    <path d="M64.921875,141.84375,204.921875,191.390625" stroke="rgb(254, 199, 100)" stroke-width="1"></path>
    <path d="M64.8125,141.625,204.8125,191.9375" stroke="rgb(254, 200, 100)" stroke-width="1"></path>
    <path d="M64.703125,141.40625,204.703125,192.484375" stroke="rgb(254, 201, 101)" stroke-width="1"></path>
    <path d="M64.59375,141.1875,204.59375,193.03125" stroke="rgb(254, 201, 102)" stroke-width="1"></path>
    <path d="M64.484375,140.96875,204.484375,193.578125" stroke="rgb(254, 202, 103)" stroke-width="1"></path>
    <path d="M64.375,140.75,204.375,194.125" stroke="rgb(254, 202, 103)" stroke-width="1"></path>
    <path d="M64.265625,140.53125,204.265625,194.671875" stroke="rgb(254, 203, 104)" stroke-width="1"></path>
    <path d="M64.15625,140.3125,204.15625,195.21875" stroke="rgb(254, 204, 105)" stroke-width="1"></path>
    <path d="M64.046875,140.09375,204.046875,195.765625" stroke="rgb(254, 204, 106)" stroke-width="1"></path>
    <path d="M63.9375,139.875,203.9375,196.3125" stroke="rgb(254, 205, 107)" stroke-width="1"></path>
    <path d="M63.828125,139.65625,203.828125,196.859375" stroke="rgb(254, 206, 107)" stroke-width="1"></path>
    <path d="M63.71875,139.4375,203.71875,197.40625" stroke="rgb(254, 206, 108)" stroke-width="1"></path>
    <path d="M63.609375,139.21875,203.609375,197.953125" stroke="rgb(254, 207, 109)" stroke-width="1"></path>
    <path d="M63.5,139,203.5,198.5" stroke="rgb(254, 208, 110)" stroke-width="1"></path>
    <path d="M63.390625,138.78125,203.390625,199.046875" stroke="rgb(254, 208, 110)" stroke-width="1"></path>
    <path d="M63.28125,138.5625,203.28125,199.59375" stroke="rgb(254, 209, 111)" stroke-width="1"></path>
    <path d="M63.171875,138.34375,203.171875,200.140625" stroke="rgb(254, 209, 112)" stroke-width="1"></path>
    <path d="M63.0625,138.125,203.0625,200.6875" stroke="rgb(254, 210, 113)" stroke-width="1"></path>
    <path d="M62.953125,137.90625,202.953125,201.234375" stroke="rgb(254, 211, 114)" stroke-width="1"></path>
    <path d="M62.84375,137.6875,202.84375,201.78125" stroke="rgb(254, 211, 114)" stroke-width="1"></path>
    <path d="M62.734375,137.46875,202.734375,202.328125" stroke="rgb(254, 212, 115)" stroke-width="1"></path>
    <path d="M62.625,137.25,202.625,202.875" stroke="rgb(254, 212, 116)" stroke-width="1"></path>
    <path d="M62.515625,137.03125,202.515625,203.421875" stroke="rgb(254, 213, 117)" stroke-width="1"></path>
    <path d="M62.40625,136.8125,202.40625,203.96875" stroke="rgb(254, 213, 117)" stroke-width="1"></path>
    <path d="M62.296875,136.59375,202.296875,204.515625" stroke="rgb(254, 214, 118)" stroke-width="1"></path>
    <path d="M62.1875,136.375,202.1875,205.0625" stroke="rgb(254, 215, 119)" stroke-width="1"></path>
    <path d="M62.078125,136.15625,202.078125,205.609375" stroke="rgb(254, 215, 120)" stroke-width="1"></path>
    <path d="M61.96875,135.9375,201.96875,206.15625" stroke="rgb(254, 216, 121)" stroke-width="1"></path>
    <path d="M61.859375,135.71875,201.859375,206.703125" stroke="rgb(254, 216, 121)" stroke-width="1"></path>
    <path d="M61.75,135.5,201.75,207.25" stroke="rgb(254, 217, 122)" stroke-width="1"></path>
    <path d="M61.640625,135.28125,201.640625,207.796875" stroke="rgb(254, 217, 123)" stroke-width="1"></path>
    <path d="M61.53125,135.0625,201.53125,208.34375" stroke="rgb(254, 218, 124)" stroke-width="1"></path>
    <path d="M61.421875,134.84375,201.421875,208.890625" stroke="rgb(254, 218, 125)" stroke-width="1"></path>
    <path d="M61.3125,134.625,201.3125,209.4375" stroke="rgb(254, 219, 125)" stroke-width="1"></path>
    <path d="M61.203125,134.40625,201.203125,209.984375" stroke="rgb(254, 219, 126)" stroke-width="1"></path>
    <path d="M61.09375,134.1875,201.09375,210.53125" stroke="rgb(254, 220, 127)" stroke-width="1"></path>
    <path d="M60.984375,133.96875,200.984375,211.078125" stroke="rgb(254, 220, 128)" stroke-width="1"></path>
    <path d="M60.875,133.75,200.875,211.625" stroke="rgb(254, 221, 129)" stroke-width="1"></path>
    <path d="M60.765625,133.53125,200.765625,212.171875" stroke="rgb(254, 221, 129)" stroke-width="1"></path>
    <path d="M60.65625,133.3125,200.65625,212.71875" stroke="rgb(254, 222, 130)" stroke-width="1"></path>
    <path d="M60.546875,133.09375,200.546875,213.265625" stroke="rgb(254, 222, 131)" stroke-width="1"></path>
    <path d="M60.4375,132.875,200.4375,213.8125" stroke="rgb(254, 223, 132)" stroke-width="1"></path>
    <path d="M60.328125,132.65625,200.328125,214.359375" stroke="rgb(254, 223, 132)" stroke-width="1"></path>
    <path d="M60.21875,132.4375,200.21875,214.90625" stroke="rgb(254, 223, 133)" stroke-width="1"></path>
    <path d="M60.109375,132.21875,200.109375,215.453125" stroke="rgb(254, 224, 134)" stroke-width="1"></path>
    <path d="M60,132,200,216" stroke="rgb(254, 224, 135)" stroke-width="1"></path>
  </g>
</svg>