<svg id="logo" xmlns="http://www.w3.org/2000/svg" viewBox="0 0 600 300">
  <rect x="0" y="0" width="600" height="300" fill="#000000"></rect>
  <rect x="60" y="48" width="168" height="168" fill="none"></rect>
  <g id="ova" fill="#ffffff">
    <path d="M264.6435546875,171.2578125l-13.5,32.7421875h6.6328125l3.1640625-7.96875h14.5546875l3.3984375,7.96875h6.6796875l-14.4609375-32.7421875h-6.46875ZM262.8623046875,191.2265625l5.0390625-12.9609375,5.53125,12.9609375h-10.5703125Z"></path>
    <path d="M293.6513671875,198.046875c-1.2578125-1.25-1.88671875-2.8984375-1.88671875-4.9453125,0-2.09375.625-3.75390625,1.875-4.98046875s2.859375-1.83984375,4.828125-1.83984375c1.828125,0,3.765625.59375,5.8125,1.78125v-4.8984375c-2.0625-.984375-4.3671875-1.4765625-6.9140625-1.4765625-3.4375,0-6.23828125,1.0625-8.40234375,3.1875s-3.24609375,4.9296875-3.24609375,8.4140625c0,3.359375,1.10546875,6.0546875,3.31640625,8.0859375s5.08984375,3.046875,8.63671875,3.046875c2.40625,0,4.7421875-.4609375,7.0078125-1.3828125v-4.6640625c-2.4375,1.03125-4.4375,1.546875-6,1.546875-2.09375,0-3.76953125-.625-5.02734375-1.875Z"></path>
    <path d="M326.59912109375,200.4375c-.671875,0-1.0078125-.4140625-1.0078125-1.2421875v-10.7109375c0-2.140625-.7421875-3.80859375-2.2265625-5.00390625s-3.6328125-1.79296875-6.4453125-1.79296875c-3.28125,0-6.1171875.9453125-8.5078125,2.8359375v5.1796875c1.078125-1.1875,2.2734375-2.0859375,3.5859375-2.6953125s2.6328125-.9140625,3.9609375-.9140625c2.59375,0,3.890625,1.0703125,3.890625,3.2109375v1.0078125l-4.6640625,1.359375c-2.8125.8125-4.78125,1.765625-5.90625,2.859375s-1.6875,2.5859375-1.6875,4.4765625c0,1.484375.56640625,2.7578125,1.69921875,3.8203125s2.48828125,1.59375,4.06640625,1.59375c2.21875,0,4.4296875-.78125,6.6328125-2.34375.21875.875.60546875,1.484375,1.16015625,1.828125s1.34765625.515625,2.37890625.515625c1.671875,0,3.515625-.6171875,5.53125-1.8515625v-3.328125c-.34375.3125-.76953125.58984375-1.27734375.83203125s-.90234375.36328125-1.18359375.36328125ZM319.84912109375,199.0546875c-1.265625,1.15625-2.53125,1.734375-3.796875,1.734375-.75,0-1.37890625-.2421875-1.88671875-.7265625s-.76171875-1.125-.76171875-1.921875c0-.71875.21484375-1.328125.64453125-1.828125s1.1015625-.9921875,2.015625-1.4765625,2.17578125-1,3.78515625-1.546875v5.765625Z"></path>
    <path d="M346.546875,182.6015625c-1.734375-.609375-3.3671875-.9140625-4.8984375-.9140625-1.984375,0-3.83203125.48046875-5.54248046875,1.44140625-1.7109375.9609375-3.0546875,2.28515625-4.03125,3.97265625s-1.46484375,3.5625-1.46484375,5.625c0,3.484375,1.05078125,6.234375,3.15234375,8.25s4.90185546875,3.0234375,8.40185546875,3.0234375h10.125v-32.7421875h-5.7421875v11.34375ZM346.546875,199.59375h-3.0234375c-4.671875,0-7.00732421875-2.3515625-7.00732421875-7.0546875,0-1.953125.57373046875-3.53125,1.72216796875-4.734375s2.68359375-1.8046875,4.60546875-1.8046875c1.28125,0,2.515625.3046875,3.703125.9140625v12.6796875Z"></path>
    <path d="M367.38671875,181.6875c-3.25,0-5.88671875,1.0546875-7.91015625,3.1640625s-3.03515625,4.828125-3.03515625,8.15625c0,3.453125,1.09375,6.21875,3.28125,8.296875s5.0078125,3.1171875,8.4609375,3.1171875c3.65625,0,6.765625-.90625,9.328125-2.71875v-4.2890625c-1.359375.96875-2.67578125,1.69140625-3.94921875,2.16796875s-2.59765625.71484375-3.97265625.71484375c-2.140625,0-3.82421875-.52734375-5.05078125-1.58203125s-1.95703125-2.55859375-2.19140625-4.51171875h15.4921875v-.8671875c0-3.640625-.9375-6.4921875-2.8125-8.5546875s-4.421875-3.09375-7.640625-3.09375ZM362.44140625,190.7109375c.234375-1.671875.79296875-2.9375,1.67578125-3.796875s2.05078125-1.2890625,3.50390625-1.2890625c1.421875,0,2.5390625.44921875,3.3515625,1.34765625s1.296875,2.14453125,1.453125,3.73828125h-9.984375Z"></path>
    <path d="M409.451171875,181.6875c-1.46875,0-2.81640625.34765625-4.04296875,1.04296875s-2.45703125,1.80078125-3.69140625,3.31640625c-.578125-1.328125-1.44921875-2.38671875-2.61328125-3.17578125s-2.58984375-1.18359375-4.27734375-1.18359375c-1.40625,0-2.6484375.28515625-3.7265625.85546875s-2.140625,1.44921875-3.1875,2.63671875v-3.0703125h-5.765625v21.890625h5.765625v-14.5546875c.890625-1.1875,1.7265625-2.05078125,2.5078125-2.58984375s1.640625-.80859375,2.578125-.80859375c1.15625,0,2.078125.42578125,2.765625,1.27734375s1.03125,2.02734375,1.03125,3.52734375v13.1484375h5.7421875v-14.5546875c1.625-2.265625,3.3203125-3.3984375,5.0859375-3.3984375,1.234375,0,2.17578125.4375,2.82421875,1.3125s.97265625,2.0703125.97265625,3.5859375v13.0546875h5.765625v-14.015625c0-2.515625-.7109375-4.52734375-2.1328125-6.03515625s-3.2890625-2.26171875-5.6015625-2.26171875Z"></path>
    <polygon points="430.080078125 193.875 424.900390625 182.109375 418.666015625 182.109375 427.173828125 199.96875 420.212890625 215.0390625 426.400390625 215.0390625 441.517578125 182.109375 435.330078125 182.109375 430.080078125 193.875"></polygon>
    <polygon points="267.91650390625 144.28125 258.65869140625 123.2578125 251.97900390625 123.2578125 266.90869140625 156.421875 269.11181640625 156.421875 283.57275390625 123.2578125 276.93994140625 123.2578125 267.91650390625 144.28125"></polygon>
    <rect x="286.40234375" y="134.109375" width="5.765625" height="21.890625"></rect>
    <path d="M287,129.52734375c.6484375.6640625,1.41015625.99609375,2.28515625.99609375.90625,0,1.67578125-.33203125,2.30859375-.99609375s.94921875-1.42578125.94921875-2.28515625c0-.890625-.3203125-1.65625-.9609375-2.296875s-1.40625-.9609375-2.296875-.9609375c-.859375,0-1.6171875.31640625-2.2734375.94921875s-.984375,1.40234375-.984375,2.30859375c0,.859375.32421875,1.62109375.97265625,2.28515625Z"></path>
    <path d="M306.28271484375,151.67578125c-.609375.3515625-1.40625.52734375-2.390625.52734375-1.921875,0-4.2890625-.78125-7.1015625-2.34375v4.8046875c.890625.484375,2.01171875.8984375,3.36328125,1.2421875s2.80859375.515625,4.37109375.515625c2.5,0,4.484375-.60546875,5.953125-1.81640625s2.203125-2.87109375,2.203125-4.98046875c0-1.5-.50390625-2.78515625-1.51171875-3.85546875s-2.76171875-2.23828125-5.26171875-3.50390625c-1.75-.875-2.8203125-1.4765625-3.2109375-1.8046875s-.5859375-.65625-.5859375-.984375c0-.578125.234375-1.0234375.703125-1.3359375s1.1171875-.46875,1.9453125-.46875c.984375,0,2.1015625.21484375,3.3515625.64453125s2.421875.99609375,3.515625,1.69921875v-4.6171875c-1.1875-.59375-2.3125-1.02734375-3.375-1.30078125s-2.1953125-.41015625-3.3984375-.41015625c-2.46875,0-4.4609375.578125-5.9765625,1.734375s-2.2734375,2.703125-2.2734375,4.640625c0,1.359375.421875,2.53515625,1.265625,3.52734375s2.1484375,1.91015625,3.9140625,2.75390625c2.296875,1.125,3.6640625,1.8359375,4.1015625,2.1328125s.765625.5859375.984375.8671875.328125.59375.328125.9375c0,.578125-.3046875,1.04296875-.9140625,1.39453125Z"></path>
    <path d="M331.09765625,156h5.765625v-21.890625h-5.765625v14.5078125c-.546875,1.078125-1.265625,1.9140625-2.15625,2.5078125s-1.8203125.890625-2.7890625.890625c-1.171875,0-2.11328125-.37109375-2.82421875-1.11328125s-1.06640625-1.82421875-1.06640625-3.24609375v-13.546875h-5.7421875v14.015625c0,2.46875.71875,4.46875,2.15625,6s3.328125,2.296875,5.671875,2.296875c2.421875,0,4.671875-1.1328125,6.75-3.3984375v2.9765625Z"></path>
    <path d="M362.49609375,154.5703125v-3.328125c-.34375.3125-.76953125.58984375-1.27734375.83203125s-.90234375.36328125-1.18359375.36328125c-.671875,0-1.0078125-.4140625-1.0078125-1.2421875v-10.7109375c0-2.140625-.7421875-3.80859375-2.2265625-5.00390625s-3.6328125-1.79296875-6.4453125-1.79296875c-3.28125,0-6.1171875.9453125-8.5078125,2.8359375v5.1796875c1.078125-1.1875,2.2734375-2.0859375,3.5859375-2.6953125s2.6328125-.9140625,3.9609375-.9140625c2.59375,0,3.890625,1.0703125,3.890625,3.2109375v1.0078125l-4.6640625,1.359375c-2.8125.8125-4.78125,1.765625-5.90625,2.859375s-1.6875,2.5859375-1.6875,4.4765625c0,1.484375.56640625,2.7578125,1.69921875,3.8203125s2.48828125,1.59375,4.06640625,1.59375c2.21875,0,4.4296875-.78125,6.6328125-2.34375.21875.875.60546875,1.484375,1.16015625,1.828125s1.34765625.515625,2.37890625.515625c1.671875,0,3.515625-.6171875,5.53125-1.8515625ZM353.28515625,151.0546875c-1.265625,1.15625-2.53125,1.734375-3.796875,1.734375-.75,0-1.37890625-.2421875-1.88671875-.7265625s-.76171875-1.125-.76171875-1.921875c0-.71875.21484375-1.328125.64453125-1.828125s1.1015625-.9921875,2.015625-1.4765625,2.17578125-1,3.78515625-1.546875v5.765625Z"></path>
    <rect x="365.515625" y="123.2578125" width="5.765625" height="32.7421875"></rect>
    <rect x="376.7890625" y="134.109375" width="5.765625" height="21.890625"></rect>
    <path d="M379.671875,130.5234375c.90625,0,1.67578125-.33203125,2.30859375-.99609375s.94921875-1.42578125.94921875-2.28515625c0-.890625-.3203125-1.65625-.9609375-2.296875s-1.40625-.9609375-2.296875-.9609375c-.859375,0-1.6171875.31640625-2.2734375.94921875s-.984375,1.40234375-.984375,2.30859375c0,.859375.32421875,1.62109375.97265625,2.28515625s1.41015625.99609375,2.28515625.99609375Z"></path>
    <polygon points="406.703125 156 406.703125 151.6875 395.265625 151.6875 406.65625 134.109375 386.546875 134.109375 386.546875 138.46875 397.09375 138.46875 385.6796875 156 406.703125 156"></polygon>
    <path d="M416.796875,143.671875c-2.8125.8125-4.78125,1.765625-5.90625,2.859375s-1.6875,2.5859375-1.6875,4.4765625c0,1.484375.56640625,2.7578125,1.69921875,3.8203125s2.48828125,1.59375,4.06640625,1.59375c2.21875,0,4.4296875-.78125,6.6328125-2.34375.21875.875.60546875,1.484375,1.16015625,1.828125s1.34765625.515625,2.37890625.515625c1.671875,0,3.515625-.6171875,5.53125-1.8515625v-3.328125c-.34375.3125-.76953125.58984375-1.27734375.83203125s-.90234375.36328125-1.18359375.36328125c-.671875,0-1.0078125-.4140625-1.0078125-1.2421875v-10.7109375c0-2.140625-.7421875-3.80859375-2.2265625-5.00390625s-3.6328125-1.79296875-6.4453125-1.79296875c-3.28125,0-6.1171875.9453125-8.5078125,2.8359375v5.1796875c1.078125-1.1875,2.2734375-2.0859375,3.5859375-2.6953125s2.6328125-.9140625,3.9609375-.9140625c2.59375,0,3.890625,1.0703125,3.890625,3.2109375v1.0078125l-4.6640625,1.359375ZM421.4609375,151.0546875c-1.265625,1.15625-2.53125,1.734375-3.796875,1.734375-.75,0-1.37890625-.2421875-1.88671875-.7265625s-.76171875-1.125-.76171875-1.921875c0-.71875.21484375-1.328125.64453125-1.828125s1.1015625-.9921875,2.015625-1.4765625,2.17578125-1,3.78515625-1.546875v5.765625Z"></path>
    <path d="M440.4169921875,150.9609375c-.59375-.609375-.890625-1.40625-.890625-2.390625v-10.1015625h7.5v-4.359375h-7.5v-5.8125h-.46875l-8.6953125,9.234375v.9375h3.421875v10.4765625c0,2.296875.69140625,4.1171875,2.07421875,5.4609375s3.30859375,2.015625,5.77734375,2.015625c1.828125,0,3.78125-.4609375,5.859375-1.3828125v-4.6171875c-1.75.96875-3.296875,1.453125-4.640625,1.453125-1.03125,0-1.84375-.3046875-2.4375-.9140625Z"></path>
    <path d="M453.640625,123.984375c-.859375,0-1.6171875.31640625-2.2734375.94921875s-.984375,1.40234375-.984375,2.30859375c0,.859375.32421875,1.62109375.97265625,2.28515625s1.41015625.99609375,2.28515625.99609375c.90625,0,1.67578125-.33203125,2.30859375-.99609375s.94921875-1.42578125.94921875-2.28515625c0-.890625-.3203125-1.65625-.9609375-2.296875s-1.40625-.9609375-2.296875-.9609375Z"></path>
    <rect x="450.7578125" y="134.109375" width="5.765625" height="21.890625"></rect>
    <path d="M478.82421875,135.1171875c-1.859375-.953125-3.9296875-1.4296875-6.2109375-1.4296875-2.25,0-4.296875.47265625-6.140625,1.41796875s-3.28125,2.2734375-4.3125,3.984375-1.546875,3.66796875-1.546875,5.87109375c0,2.265625.48828125,4.25,1.46484375,5.953125s2.40234375,3.046875,4.27734375,4.03125,3.9609375,1.4765625,6.2578125,1.4765625c2.28125,0,4.37109375-.4921875,6.26953125-1.4765625s3.3359375-2.328125,4.3125-4.03125,1.46484375-3.6875,1.46484375-5.953125c0-2.171875-.5078125-4.1171875-1.5234375-5.8359375s-2.453125-3.0546875-4.3125-4.0078125ZM476.99609375,150.28125c-1.078125,1.25-2.5546875,1.875-4.4296875,1.875-1.796875,0-3.23046875-.65234375-4.30078125-1.95703125s-1.60546875-3.05078125-1.60546875-5.23828125c0-2.109375.546875-3.8046875,1.640625-5.0859375s2.515625-1.921875,4.265625-1.921875c1.859375,0,3.33203125.60546875,4.41796875,1.81640625s1.62890625,2.92578125,1.62890625,5.14453125c0,2.328125-.5390625,4.1171875-1.6171875,5.3671875Z"></path>
    <path d="M507.0419921875,135.99609375c-1.3984375-1.5390625-3.26953125-2.30859375-5.61328125-2.30859375-1.3125,0-2.52734375.26953125-3.64453125.80859375s-2.20703125,1.43359375-3.26953125,2.68359375v-3.0703125h-5.765625v21.890625h5.765625v-14.5546875c.9375-1.21875,1.796875-2.08984375,2.578125-2.61328125s1.6171875-.78515625,2.5078125-.78515625c1.171875,0,2.09765625.4140625,2.77734375,1.2421875s1.01953125,1.953125,1.01953125,3.375v13.3359375h5.7421875v-13.921875c0-2.515625-.69921875-4.54296875-2.09765625-6.08203125Z"></path>
    <path d="M258.77685546875,106.21875c2.7734375,1.46875,5.85546875,2.203125,9.24609375,2.203125,3.4375,0,6.52734375-.72265625,9.26953125-2.16796875s4.8984375-3.4765625,6.46875-6.09375,2.35546875-5.45703125,2.35546875-8.51953125c0-3.140625-.8046875-6.02734375-2.4140625-8.66015625s-3.76953125-4.6484375-6.48046875-6.046875-5.76171875-2.09765625-9.15234375-2.09765625c-3.53125,0-6.65625.73046875-9.375,2.19140625s-4.8515625,3.51171875-6.3984375,6.15234375-2.3203125,5.4609375-2.3203125,8.4609375c0,3.109375.7734375,5.94921875,2.3203125,8.51953125s3.70703125,4.58984375,6.48046875,6.05859375ZM257.94482421875,85.76953125c.953125-1.7265625,2.31640625-3.0703125,4.08984375-4.03125s3.76953125-1.44140625,5.98828125-1.44140625,4.21484375.4765625,5.98828125,1.4296875,3.1484375,2.30078125,4.125,4.04296875,1.46484375,3.69921875,1.46484375,5.87109375c0,3.328125-1.08203125,6.046875-3.24609375,8.15625s-4.92578125,3.1640625-8.28515625,3.1640625c-2.21875,0-4.20703125-.4765625-5.96484375-1.4296875s-3.12890625-2.296875-4.11328125-4.03125-1.4765625-3.6875-1.4765625-5.859375c0-2.1875.4765625-4.14453125,1.4296875-5.87109375Z"></path>
    <path d="M295.88525390625,107.1328125c1.71875.859375,3.4296875,1.2890625,5.1328125,1.2890625,2.09375,0,3.96875-.484375,5.625-1.453125s2.93359375-2.3203125,3.83203125-4.0546875,1.34765625-3.703125,1.34765625-5.90625c0-3.359375-.95703125-6.0859375-2.87109375-8.1796875s-4.43359375-3.140625-7.55859375-3.140625c-1.96875,0-3.8203125.609375-5.5546875,1.828125v-1.40625h-5.71875v32.9296875h5.765625v-11.90625ZM295.88525390625,91.828125c1.015625-.734375,1.8359375-1.21484375,2.4609375-1.44140625s1.2734375-.33984375,1.9453125-.33984375c1.796875,0,3.18359375.6328125,4.16015625,1.8984375s1.46484375,3.015625,1.46484375,5.25c0,2.046875-.546875,3.71875-1.640625,5.015625s-2.546875,1.9453125-4.359375,1.9453125c-1.25,0-2.59375-.4140625-4.03125-1.2421875v-11.0859375Z"></path>
    <path d="M326.63134765625,108.421875c3.65625,0,6.765625-.90625,9.328125-2.71875v-4.2890625c-1.359375.96875-2.67578125,1.69140625-3.94921875,2.16796875s-2.59765625.71484375-3.97265625.71484375c-2.140625,0-3.82421875-.52734375-5.05078125-1.58203125s-1.95703125-2.55859375-2.19140625-4.51171875h15.4921875v-.8671875c0-3.640625-.9375-6.4921875-2.8125-8.5546875s-4.421875-3.09375-7.640625-3.09375c-3.25,0-5.88671875,1.0546875-7.91015625,3.1640625s-3.03515625,4.828125-3.03515625,8.15625c0,3.453125,1.09375,6.21875,3.28125,8.296875s5.0078125,3.1171875,8.4609375,3.1171875ZM322.56494140625,90.9140625c.8828125-.859375,2.05078125-1.2890625,3.50390625-1.2890625,1.421875,0,2.5390625.44921875,3.3515625,1.34765625s1.296875,2.14453125,1.453125,3.73828125h-9.984375c.234375-1.671875.79296875-2.9375,1.67578125-3.796875Z"></path>
    <path d="M346.3603515625,93.4453125c.9375-1.21875,1.796875-2.08984375,2.578125-2.61328125s1.6171875-.78515625,2.5078125-.78515625c1.171875,0,2.09765625.4140625,2.77734375,1.2421875s1.01953125,1.953125,1.01953125,3.375v13.3359375h5.7421875v-13.921875c0-2.515625-.69921875-4.54296875-2.09765625-6.08203125s-3.26953125-2.30859375-5.61328125-2.30859375c-1.3125,0-2.52734375.26953125-3.64453125.80859375s-2.20703125,1.43359375-3.26953125,2.68359375v-3.0703125h-5.765625v21.890625h5.765625v-14.5546875Z"></path>
  </g>
  <g id="bac" fill="#ffffff">
    <path d="M262.8232421875,246.7109375c.671875-1.62890625,1.0078125-3.064453125,1.0078125-4.3046875,0-.92578125-.2421875-1.765625-.7265625-2.515625s-1.18505859375-1.125-2.1015625-1.125c-1.30224609375,0-2.640625,1.02734375-4.015625,3.078125l3.4375-11.328125h-.390625c-.7919921875.333984375-2.015625.521484375-3.671875.5625l-.1875.65625h.5c.5517578125,0,.8955078125.052734375,1.03125.15625.13525390625.10546875.203125.27734375.203125.515625,0,.16796875-.14599609375.724609375-.4375,1.671875l-3.796875,12.515625c-.4482421875,1.48046875-.671875,2.49609375-.671875,3.046875,0,.85546875.2783203125,1.53515625.8359375,2.0390625.55712890625.505859375,1.2470703125.7578125,2.0703125.7578125,1.1875,0,2.46875-.546875,3.84375-1.640625s2.3984375-2.455078125,3.0703125-4.0859375ZM255.9873046875,251.734375c-.4375,0-.7685546875-.12109375-.9921875-.3671875-.22412109375-.244140625-.3359375-.60546875-.3359375-1.0859375,0-.728515625.390625-2.20703125,1.171875-4.4375.78125-2.228515625,1.6171875-3.82421875,2.5078125-4.7890625.890625-.962890625,1.67431640625-1.4453125,2.3515625-1.4453125.41650390625,0,.7470703125.1875.9921875.5625.24462890625.375.3671875.875.3671875,1.5,0,1.583984375-.6357421875,3.65625-1.90625,6.21875-1.27099609375,2.5625-2.65625,3.84375-4.15625,3.84375Z"></path>
    <path d="M274.2685546875,238.765625c-.2294921875,0-.4248046875.1015625-.5859375.3046875-.16162109375.203125-.2421875.44140625-.2421875.7109375,0,.28125.16650390625.69921875.5,1.25.3330078125.5625.5,1.130859375.5,1.703125,0,1.208984375-.4873046875,2.671875-1.4609375,4.390625-.97412109375,1.71875-1.9716796875,3.13671875-2.9921875,4.25.57275390625-2.08203125.859375-4.37890625.859375-6.890625,0-1.92578125-.23193359375-3.361328125-.6953125-4.3046875-.4638671875-.94140625-1.0810546875-1.4140625-1.8515625-1.4140625-.6044921875,0-1.16943359375.3359375-1.6953125,1.0078125-.5263671875.671875-.8515625,1.748046875-.9765625,3.2265625h.65625c.1767578125-1.947265625.6455078125-2.921875,1.40625-2.921875.3955078125,0,.72900390625.396484375,1,1.1875.2705078125.79296875.40625,1.91796875.40625,3.375,0,1.91796875-.13818359375,3.708984375-.4140625,5.375-.2763671875,1.66796875-.59130859375,2.8310546875-.9453125,3.4921875-.3544921875.662109375-.9716796875,1.421875-1.8515625,2.28125-.88037109375.859375-1.61962890625,1.4638671875-2.21875,1.8125-.5986328125.349609375-1.2109375.5234375-1.8359375.5234375-.4267578125,0-.9736328125-.09375-1.640625-.28125-.51025390625-.134765625-.88525390625-.203125-1.125-.203125-.3125,0-.609375.091796875-.890625.2734375-.28125.1826171875-.421875.4296875-.421875.7421875,0,.7607421875.66162109375,1.140625,1.984375,1.140625,1.03125,0,2.0703125-.2783203125,3.1171875-.8359375,1.046875-.556640625,2.3017578125-1.546875,3.765625-2.96875,1.46337890625-1.421875,2.9345703125-3.015625,4.4140625-4.78125,1.47900390625-1.765625,2.6015625-3.546875,3.3671875-5.34375s1.1484375-3.3203125,1.1484375-4.5703125c0-.83203125-.1201171875-1.462890625-.359375-1.890625-.23974609375-.42578125-.546875-.640625-.921875-.640625Z"></path>
    <path d="M294.2685546875,251.203125c-.1875,0-.328125-.0546875-.421875-.1640625s-.140625-.267578125-.140625-.4765625c0-.28125.203125-1.08203125.609375-2.40625l2.78125-9.15625h-1.875l-.390625,1.328125c-.1044921875-.51953125-.3154296875-.91015625-.6328125-1.171875-.31787109375-.259765625-.74755859375-.390625-1.2890625-.390625-.92724609375,0-2.04443359375.54296875-3.3515625,1.625-1.3076171875,1.083984375-2.3671875,2.435546875-3.1796875,4.0546875-.8125,1.62109375-1.21875,3.138671875-1.21875,4.5546875,0,1.052734375.2626953125,1.888671875.7890625,2.5078125.52587890625.6201171875,1.1533203125.9296875,1.8828125.9296875.78125,0,1.6171875-.392578125,2.5078125-1.1796875.890625-.78515625,1.5703125-1.580078125,2.0390625-2.3828125-.20849609375.6875-.3125,1.24609375-.3125,1.671875,0,.53125.1298828125.98046875.390625,1.34375.26025390625.365234375.63525390625.546875,1.125.546875.63525390625,0,1.33056640625-.3828125,2.0859375-1.1484375.7548828125-.765625,1.3359375-1.6171875,1.7421875-2.5546875h-.65625c-.9375,1.646484375-1.765625,2.46875-2.484375,2.46875ZM293.2841796875,245.390625c-.70849609375,2.083984375-1.54443359375,3.630859375-2.5078125,4.640625-.9638671875,1.01171875-1.7890625,1.515625-2.4765625,1.515625-.4169921875,0-.7294921875-.173828125-.9375-.5234375-.20849609375-.34765625-.3125-.8671875-.3125-1.5546875,0-1.58203125.68212890625-3.62890625,2.046875-6.140625,1.3642578125-2.509765625,2.68212890625-3.765625,3.953125-3.765625.41650390625,0,.73681640625.154296875.9609375.4609375.2236328125.30859375.3359375.6796875.3359375,1.1171875,0,.75-.3544921875,2.16796875-1.0625,4.25Z"></path>
    <path d="M302.8623046875,250.765625c-.53125.490234375-.97412109375.734375-1.328125.734375-.23974609375,0-.41943359375-.078125-.5390625-.234375-.1201171875-.15625-.1796875-.390625-.1796875-.703125,0-.46875.15087890625-1.15625.453125-2.0625.22900390625-.6875.3798828125-1.16015625.453125-1.421875l5.03125-16.5625h-.390625c-.8125.34375-2.078125.53125-3.796875.5625l-.203125.65625h.609375c.5625,0,.9140625.052734375,1.0546875.15625.140625.10546875.2109375.28125.2109375.53125,0,.16796875-.15625.76171875-.46875,1.78125l-3.65625,12.0625c-.67724609375,2.21875-1.015625,3.609375-1.015625,4.171875,0,.57421875.171875,1.05078125.515625,1.4296875.34375.380859375.8017578125.5703125,1.375.5703125,1.66650390625,0,3.03125-1.39453125,4.09375-4.1875h-.6875c-.48974609375,1.1875-1,2.02734375-1.53125,2.515625Z"></path>
    <path d="M314.6904296875,238.765625c-1.30224609375,0-2.640625,1.02734375-4.015625,3.078125l3.4375-11.328125h-.390625c-.7919921875.333984375-2.015625.521484375-3.671875.5625l-.1875.65625h.5c.5517578125,0,.8955078125.052734375,1.03125.15625.13525390625.10546875.203125.27734375.203125.515625,0,.16796875-.14599609375.724609375-.4375,1.671875l-3.796875,12.515625c-.4482421875,1.48046875-.671875,2.49609375-.671875,3.046875,0,.85546875.2783203125,1.53515625.8359375,2.0390625.55712890625.505859375,1.2470703125.7578125,2.0703125.7578125,1.1875,0,2.46875-.546875,3.84375-1.640625s2.3984375-2.455078125,3.0703125-4.0859375c.671875-1.62890625,1.0078125-3.064453125,1.0078125-4.3046875,0-.92578125-.2421875-1.765625-.7265625-2.515625s-1.18505859375-1.125-2.1015625-1.125ZM313.8310546875,247.890625c-1.27099609375,2.5625-2.65625,3.84375-4.15625,3.84375-.4375,0-.7685546875-.12109375-.9921875-.3671875-.22412109375-.244140625-.3359375-.60546875-.3359375-1.0859375,0-.728515625.390625-2.20703125,1.171875-4.4375.78125-2.228515625,1.6171875-3.82421875,2.5078125-4.7890625.890625-.962890625,1.67431640625-1.4453125,2.3515625-1.4453125.41650390625,0,.7470703125.1875.9921875.5625.24462890625.375.3671875.875.3671875,1.5,0,1.583984375-.6357421875,3.65625-1.90625,6.21875Z"></path>
    <path d="M326.7529296875,243.9453125c1.125-1.03515625,1.6875-2.1171875,1.6875-3.2421875,0-.55078125-.1513671875-1.01171875-.453125-1.3828125-.30224609375-.369140625-.7451171875-.5546875-1.328125-.5546875-.9482421875,0-2.06005859375.58984375-3.3359375,1.765625-1.2763671875,1.177734375-2.2607421875,2.578125-2.953125,4.203125-.69287109375,1.625-1.0390625,3.083984375-1.0390625,4.375,0,1.021484375.26806640625,1.83203125.8046875,2.4296875.5361328125.599609375,1.2314453125.8984375,2.0859375.8984375,2.07275390625,0,3.7705078125-1.47265625,5.09375-4.421875h-.75c-1.08349609375,2.333984375-2.3388671875,3.5-3.765625,3.5-.5107421875,0-.89599609375-.166015625-1.15625-.5-.2607421875-.33203125-.390625-.83203125-.390625-1.5,0-.8125.1455078125-1.671875.4375-2.578125,2.25-.95703125,3.9375-1.955078125,5.0625-2.9921875ZM323.9794921875,241.3984375c.8486328125-1.212890625,1.5859375-1.8203125,2.2109375-1.8203125.32275390625,0,.56494140625.09765625.7265625.2890625.1611328125.193359375.2421875.48828125.2421875.8828125,0,.865234375-.53662109375,1.828125-1.609375,2.890625-1.0732421875,1.0625-2.28125,1.896484375-3.625,2.5.5205078125-1.947265625,1.20556640625-3.52734375,2.0546875-4.7421875Z"></path>
    <path d="M337.5966796875,238.765625c-.5830078125,0-1.1669921875.38671875-1.75,1.15625-.58349609375.771484375-1.2607421875,2.02734375-2.03125,3.765625-.28125.646484375-.453125,1.021484375-.515625,1.125.46875-1.67578125.703125-2.96875.703125-3.875,0-.728515625-.109375-1.2734375-.328125-1.6328125s-.55224609375-.5390625-1-.5390625c-.64599609375,0-1.2998046875.412109375-1.9609375,1.234375-.66162109375.82421875-1.2109375,1.818359375-1.6484375,2.984375h.6875c.21875-.61328125.5859375-1.291015625,1.1015625-2.03125.515625-.73828125.9453125-1.109375,1.2890625-1.109375.15625,0,.2734375.07421875.3515625.21875.078125.146484375.1171875.37109375.1171875.671875,0,.5625-.234375,1.63671875-.703125,3.21875l-2.484375,8.28125h1.875l.34375-1.125c.66650390625-2.20703125,1.54150390625-4.564453125,2.625-7.0703125,1.0830078125-2.50390625,1.88525390625-3.7578125,2.40625-3.7578125.1142578125,0,.22900390625.068359375.34375.203125.2919921875.34375.578125.515625.859375.515625.25,0,.4658203125-.09765625.6484375-.296875.1826171875-.197265625.2734375-.453125.2734375-.765625,0-.322265625-.109375-.59765625-.328125-.828125-.21875-.228515625-.5107421875-.34375-.875-.34375Z"></path>
    <path d="M343.8466796875,239.890625h2.34375l.21875-.6875h-2.34375l1.4375-4.734375h-1.875l-1.4375,4.734375h-2.140625l-.21875.6875h2.15625l-2.015625,6.65625c-.6455078125,2.115234375-.96875,3.41796875-.96875,3.90625,0,.57421875.1591796875,1.046875.4765625,1.421875s.7421875.5625,1.2734375.5625c.6767578125,0,1.4248046875-.408203125,2.2421875-1.2265625.8173828125-.81640625,1.5439453125-2.001953125,2.1796875-3.5546875h-.6875c-.4794921875,1.07421875-1.0205078125,1.96484375-1.625,2.671875-.6044921875.708984375-1.09375,1.0625-1.46875,1.0625-.2080078125,0-.3671875-.064453125-.4765625-.1953125-.109375-.12890625-.1640625-.3203125-.1640625-.5703125,0-.36328125.34375-1.666015625,1.03125-3.90625l2.0625-6.828125Z"></path>
    <path d="M352.8779296875,238.84375c-1.0205078125,0-2.0732421875.458984375-3.15625,1.375-1.0830078125.91796875-1.9169921875,2.11328125-2.5,3.5859375-.5830078125,1.474609375-.875,2.8359375-.875,4.0859375,0,1.646484375.3251953125,2.802734375.9765625,3.46875.6513671875.6669921875,1.4091796875,1,2.2734375,1,.96875,0,1.9560546875-.38671875,2.9609375-1.1640625,1.0048828125-.775390625,1.8408203125-1.892578125,2.5078125-3.3515625.6669921875-1.45703125,1-3,1-4.625,0-1.34375-.2998046875-2.408203125-.8984375-3.1953125-.5986328125-.78515625-1.3623046875-1.1796875-2.2890625-1.1796875ZM353.1044921875,247.75c-.9013671875,2.646484375-2.0498046875,3.96875-3.4453125,3.96875-.5107421875,0-.9111328125-.197265625-1.203125-.59375-.2919921875-.39453125-.4375-.875-.4375-1.4375,0-1.86328125.4716796875-4.0234375,1.4140625-6.4765625s2.0654296875-3.6796875,3.3671875-3.6796875c.5517578125,0,.9658203125.1796875,1.2421875.5390625s.4140625.8984375.4140625,1.6171875c0,1.396484375-.4501953125,3.41796875-1.3515625,6.0625Z"></path>
    <path d="M373.2060546875,238.765625c-.9580078125,0-2.0654296875.546875-3.3203125,1.640625s-2.2294921875,2.435546875-2.921875,4.0234375c-.6923828125,1.58984375-1.0390625,3.0546875-1.0390625,4.3984375,0,1.146484375.2578125,2.03515625.7734375,2.6640625.515625.630859375,1.1904296875.9453125,2.0234375.9453125.9892578125,0,1.9423828125-.439453125,2.859375-1.3203125.9169921875-.87890625,1.6298828125-2.064453125,2.140625-3.5546875h-.625c-.4375,1.208984375-1.0185546875,2.169921875-1.7421875,2.8828125-.7236328125.71484375-1.3935546875,1.0703125-2.0078125,1.0703125-.4267578125,0-.7919921875-.17578125-1.09375-.53125-.3017578125-.353515625-.453125-.828125-.453125-1.421875,0-.9375.2763671875-2.3046875.828125-4.1015625s1.2138671875-3.234375,1.984375-4.3125,1.4482421875-1.6171875,2.03125-1.6171875c.4482421875,0,.6826171875.30859375.703125.921875.03125.82421875.3486328125,1.234375.953125,1.234375.59375,0,.890625-.369140625.890625-1.109375,0-.5-.1923828125-.92578125-.578125-1.28125-.3857421875-.353515625-.8544921875-.53125-1.40625-.53125Z"></path>
    <path d="M385.2685546875,251.203125c-.1875,0-.328125-.0546875-.421875-.1640625s-.140625-.267578125-.140625-.4765625c0-.28125.203125-1.08203125.609375-2.40625l2.78125-9.15625h-1.875l-.390625,1.328125c-.1044921875-.51953125-.3154296875-.91015625-.6328125-1.171875-.3173828125-.259765625-.7470703125-.390625-1.2890625-.390625-.9267578125,0-2.0439453125.54296875-3.3515625,1.625-1.3076171875,1.083984375-2.3671875,2.435546875-3.1796875,4.0546875-.8125,1.62109375-1.21875,3.138671875-1.21875,4.5546875,0,1.052734375.2626953125,1.888671875.7890625,2.5078125.5263671875.6201171875,1.1533203125.9296875,1.8828125.9296875.78125,0,1.6171875-.392578125,2.5078125-1.1796875.890625-.78515625,1.5703125-1.580078125,2.0390625-2.3828125-.2080078125.6875-.3125,1.24609375-.3125,1.671875,0,.53125.1298828125.98046875.390625,1.34375.2607421875.365234375.6357421875.546875,1.125.546875.6357421875,0,1.3310546875-.3828125,2.0859375-1.1484375s1.3359375-1.6171875,1.7421875-2.5546875h-.65625c-.9375,1.646484375-1.765625,2.46875-2.484375,2.46875ZM384.2841796875,245.390625c-.7080078125,2.083984375-1.5439453125,3.630859375-2.5078125,4.640625-.9638671875,1.01171875-1.7890625,1.515625-2.4765625,1.515625-.4169921875,0-.7294921875-.173828125-.9375-.5234375-.2080078125-.34765625-.3125-.8671875-.3125-1.5546875,0-1.58203125.6826171875-3.62890625,2.046875-6.140625,1.3642578125-2.509765625,2.6826171875-3.765625,3.953125-3.765625.4169921875,0,.7373046875.154296875.9609375.4609375.2236328125.30859375.3359375.6796875.3359375,1.1171875,0,.75-.3544921875,2.16796875-1.0625,4.25Z"></path>
    <path d="M392.6435546875,251.34375c-.2294921875,0-.4033203125-.07421875-.5234375-.2265625-.1201171875-.150390625-.1796875-.376953125-.1796875-.6796875,0-.375.2763671875-1.296875.828125-2.765625l1.5-4.0625c.5517578125-1.46875.828125-2.478515625.828125-3.03125,0-.541015625-.15625-.978515625-.46875-1.3125-.3125-.33203125-.7138671875-.5-1.203125-.5-.6357421875,0-1.3203125.328125-2.0546875.984375s-1.3876953125,1.552734375-1.9609375,2.6875h.75c.2294921875-.509765625.6220703125-1.080078125,1.1796875-1.7109375.5576171875-.62890625,1.0390625-.9453125,1.4453125-.9453125.1982421875,0,.3466796875.052734375.4453125.15625.0986328125.10546875.1484375.26171875.1484375.46875,0,.240234375-.2080078125.91796875-.625,2.03125l-1.796875,4.765625c-.5830078125,1.5625-.875,2.62109375-.875,3.171875,0,.677734375.1845703125,1.19140625.5546875,1.5390625.3701171875.349609375.7998046875.5234375,1.2890625.5234375.7294921875,0,1.4873046875-.390625,2.2734375-1.171875s1.4248046875-1.67578125,1.9140625-2.6875h-.75c-1.0419921875,1.84375-1.9482421875,2.765625-2.71875,2.765625Z"></path>
    <path d="M395.5654296875,230.515625c-.375,0-.6953125.1328125-.9609375.3984375s-.3984375.5859375-.3984375.9609375c0,.365234375.1298828125.685546875.390625.9609375.2607421875.27734375.5830078125.4140625.96875.4140625.375,0,.6953125-.134765625.9609375-.40625.265625-.26953125.3984375-.59375.3984375-.96875s-.1328125-.6953125-.3984375-.9609375-.5859375-.3984375-.9609375-.3984375Z"></path>
    <path d="M406.7998046875,239.9375c0-.322265625-.109375-.59765625-.328125-.828125-.21875-.228515625-.5107421875-.34375-.875-.34375-.5830078125,0-1.1669921875.38671875-1.75,1.15625-.5830078125.771484375-1.2607421875,2.02734375-2.03125,3.765625-.28125.646484375-.453125,1.021484375-.515625,1.125.46875-1.67578125.703125-2.96875.703125-3.875,0-.728515625-.109375-1.2734375-.328125-1.6328125s-.5517578125-.5390625-1-.5390625c-.6455078125,0-1.2998046875.412109375-1.9609375,1.234375-.6611328125.82421875-1.2109375,1.818359375-1.6484375,2.984375h.6875c.21875-.61328125.5859375-1.291015625,1.1015625-2.03125.515625-.73828125.9453125-1.109375,1.2890625-1.109375.15625,0,.2734375.07421875.3515625.21875.078125.146484375.1171875.37109375.1171875.671875,0,.5625-.234375,1.63671875-.703125,3.21875l-2.484375,8.28125h1.875l.34375-1.125c.6669921875-2.20703125,1.5419921875-4.564453125,2.625-7.0703125,1.0830078125-2.50390625,1.8857421875-3.7578125,2.40625-3.7578125.1142578125,0,.2294921875.068359375.34375.203125.2919921875.34375.578125.515625.859375.515625.25,0,.4658203125-.09765625.6484375-.296875.1826171875-.197265625.2734375-.453125.2734375-.765625Z"></path>
    <path d="M415.1826171875,240.0234375c-.5986328125-.78515625-1.3623046875-1.1796875-2.2890625-1.1796875-1.0205078125,0-2.0732421875.458984375-3.15625,1.375-1.0830078125.91796875-1.9169921875,2.11328125-2.5,3.5859375-.5830078125,1.474609375-.875,2.8359375-.875,4.0859375,0,1.646484375.3251953125,2.802734375.9765625,3.46875.6513671875.6669921875,1.4091796875,1,2.2734375,1,.96875,0,1.9560546875-.38671875,2.9609375-1.1640625,1.0048828125-.775390625,1.8408203125-1.892578125,2.5078125-3.3515625.6669921875-1.45703125,1-3,1-4.625,0-1.34375-.2998046875-2.408203125-.8984375-3.1953125ZM413.1201171875,247.75c-.9013671875,2.646484375-2.0498046875,3.96875-3.4453125,3.96875-.5107421875,0-.9111328125-.197265625-1.203125-.59375-.2919921875-.39453125-.4375-.875-.4375-1.4375,0-1.86328125.4716796875-4.0234375,1.4140625-6.4765625s2.0654296875-3.6796875,3.3671875-3.6796875c.5517578125,0,.9658203125.1796875,1.2421875.5390625s.4140625.8984375.4140625,1.6171875c0,1.396484375-.4501953125,3.41796875-1.3515625,6.0625Z"></path>
  </g>
  <g id="symbol">
    <path d="M88,188,228,76" stroke="rgb(211, 17, 33)" stroke-width="1"></path>
    <path d="M87.890625,187.78125,227.890625,76.546875" stroke="rgb(212, 17, 33)" stroke-width="1"></path>
    <path d="M87.78125,187.5625,227.78125,77.09375" stroke="rgb(212, 18, 33)" stroke-width="1"></path>
    <path d="M87.671875,187.34375,227.671875,77.640625" stroke="rgb(213, 18, 33)" stroke-width="1"></path>
    <path d="M87.5625,187.125,227.5625,78.1875" stroke="rgb(214, 19, 32)" stroke-width="1"></path>
    <path d="M87.453125,186.90625,227.453125,78.734375" stroke="rgb(215, 20, 32)" stroke-width="1"></path>
    <path d="M87.34375,186.6875,227.34375,79.28125" stroke="rgb(215, 20, 32)" stroke-width="1"></path>
    <path d="M87.234375,186.46875,227.234375,79.828125" stroke="rgb(216, 21, 32)" stroke-width="1"></path>
    <path d="M87.125,186.25,227.125,80.375" stroke="rgb(217, 21, 32)" stroke-width="1"></path>
    <path d="M87.015625,186.03125,227.015625,80.921875" stroke="rgb(217, 22, 32)" stroke-width="1"></path>
    <path d="M86.90625,185.8125,226.90625,81.46875" stroke="rgb(218, 23, 32)" stroke-width="1"></path>
    <path d="M86.796875,185.59375,226.796875,82.015625" stroke="rgb(218, 23, 32)" stroke-width="1"></path>
    <path d="M86.6875,185.375,226.6875,82.5625" stroke="rgb(219, 24, 32)" stroke-width="1"></path>
    <path d="M86.578125,185.15625,226.578125,83.109375" stroke="rgb(220, 25, 32)" stroke-width="1"></path>
    <path d="M86.46875,184.9375,226.46875,83.65625" stroke="rgb(220, 25, 32)" stroke-width="1"></path>
    <path d="M86.359375,184.71875,226.359375,84.203125" stroke="rgb(221, 26, 32)" stroke-width="1"></path>
    <path d="M86.25,184.5,226.25,84.75" stroke="rgb(222, 27, 32)" stroke-width="1"></path>
    <path d="M86.140625,184.28125,226.140625,85.296875" stroke="rgb(222, 27, 32)" stroke-width="1"></path>
    <path d="M86.03125,184.0625,226.03125,85.84375" stroke="rgb(223, 28, 32)" stroke-width="1"></path>
    <path d="M85.921875,183.84375,225.921875,86.390625" stroke="rgb(223, 29, 32)" stroke-width="1"></path>
    <path d="M85.8125,183.625,225.8125,86.9375" stroke="rgb(224, 29, 32)" stroke-width="1"></path>
    <path d="M85.703125,183.40625,225.703125,87.484375" stroke="rgb(225, 30, 32)" stroke-width="1"></path>
    <path d="M85.59375,183.1875,225.59375,88.03125" stroke="rgb(225, 31, 32)" stroke-width="1"></path>
    <path d="M85.484375,182.96875,225.484375,88.578125" stroke="rgb(226, 32, 32)" stroke-width="1"></path>
    <path d="M85.375,182.75,225.375,89.125" stroke="rgb(226, 32, 32)" stroke-width="1"></path>
    <path d="M85.265625,182.53125,225.265625,89.671875" stroke="rgb(227, 33, 32)" stroke-width="1"></path>
    <path d="M85.15625,182.3125,225.15625,90.21875" stroke="rgb(228, 34, 32)" stroke-width="1"></path>
    <path d="M85.046875,182.09375,225.046875,90.765625" stroke="rgb(228, 35, 32)" stroke-width="1"></path>
    <path d="M84.9375,181.875,224.9375,91.3125" stroke="rgb(229, 35, 32)" stroke-width="1"></path>
    <path d="M84.828125,181.65625,224.828125,91.859375" stroke="rgb(229, 36, 33)" stroke-width="1"></path>
    <path d="M84.71875,181.4375,224.71875,92.40625" stroke="rgb(230, 37, 33)" stroke-width="1"></path>
    <path d="M84.609375,181.21875,224.609375,92.953125" stroke="rgb(230, 38, 33)" stroke-width="1"></path>
    <path d="M84.5,181,224.5,93.5" stroke="rgb(231, 39, 33)" stroke-width="1"></path>
    <path d="M84.390625,180.78125,224.390625,94.046875" stroke="rgb(231, 39, 33)" stroke-width="1"></path>
    <path d="M84.28125,180.5625,224.28125,94.59375" stroke="rgb(232, 40, 33)" stroke-width="1"></path>
    <path d="M84.171875,180.34375,224.171875,95.140625" stroke="rgb(232, 41, 33)" stroke-width="1"></path>
    <path d="M84.0625,180.125,224.0625,95.6875" stroke="rgb(233, 42, 33)" stroke-width="1"></path>
    <path d="M83.953125,179.90625,223.953125,96.234375" stroke="rgb(233, 43, 34)" stroke-width="1"></path>
    <path d="M83.84375,179.6875,223.84375,96.78125" stroke="rgb(234, 44, 34)" stroke-width="1"></path>
    <path d="M83.734375,179.46875,223.734375,97.328125" stroke="rgb(234, 45, 34)" stroke-width="1"></path>
    <path d="M83.625,179.25,223.625,97.875" stroke="rgb(235, 45, 34)" stroke-width="1"></path>
    <path d="M83.515625,179.03125,223.515625,98.421875" stroke="rgb(235, 46, 34)" stroke-width="1"></path>
    <path d="M83.40625,178.8125,223.40625,98.96875" stroke="rgb(236, 47, 34)" stroke-width="1"></path>
    <path d="M83.296875,178.59375,223.296875,99.515625" stroke="rgb(236, 48, 35)" stroke-width="1"></path>
    <path d="M83.1875,178.375,223.1875,100.0625" stroke="rgb(237, 49, 35)" stroke-width="1"></path>
    <path d="M83.078125,178.15625,223.078125,100.609375" stroke="rgb(237, 50, 35)" stroke-width="1"></path>
    <path d="M82.96875,177.9375,222.96875,101.15625" stroke="rgb(238, 51, 35)" stroke-width="1"></path>
    <path d="M82.859375,177.71875,222.859375,101.703125" stroke="rgb(238, 52, 35)" stroke-width="1"></path>
    <path d="M82.75,177.5,222.75,102.25" stroke="rgb(239, 53, 36)" stroke-width="1"></path>
    <path d="M82.640625,177.28125,222.640625,102.796875" stroke="rgb(239, 54, 36)" stroke-width="1"></path>
    <path d="M82.53125,177.0625,222.53125,103.34375" stroke="rgb(240, 55, 36)" stroke-width="1"></path>
    <path d="M82.421875,176.84375,222.421875,103.890625" stroke="rgb(240, 56, 36)" stroke-width="1"></path>
    <path d="M82.3125,176.625,222.3125,104.4375" stroke="rgb(240, 57, 36)" stroke-width="1"></path>
    <path d="M82.203125,176.40625,222.203125,104.984375" stroke="rgb(241, 58, 37)" stroke-width="1"></path>
    <path d="M82.09375,176.1875,222.09375,105.53125" stroke="rgb(241, 59, 37)" stroke-width="1"></path>
    <path d="M81.984375,175.96875,221.984375,106.078125" stroke="rgb(242, 60, 37)" stroke-width="1"></path>
    <path d="M81.875,175.75,221.875,106.625" stroke="rgb(242, 60, 37)" stroke-width="1"></path>
    <path d="M81.765625,175.53125,221.765625,107.171875" stroke="rgb(242, 61, 38)" stroke-width="1"></path>
    <path d="M81.65625,175.3125,221.65625,107.71875" stroke="rgb(243, 62, 38)" stroke-width="1"></path>
    <path d="M81.546875,175.09375,221.546875,108.265625" stroke="rgb(243, 63, 38)" stroke-width="1"></path>
    <path d="M81.4375,174.875,221.4375,108.8125" stroke="rgb(244, 64, 38)" stroke-width="1"></path>
    <path d="M81.328125,174.65625,221.328125,109.359375" stroke="rgb(244, 66, 39)" stroke-width="1"></path>
    <path d="M81.21875,174.4375,221.21875,109.90625" stroke="rgb(244, 67, 39)" stroke-width="1"></path>
    <path d="M81.109375,174.21875,221.109375,110.453125" stroke="rgb(245, 68, 39)" stroke-width="1"></path>
    <path d="M81,174,221,111" stroke="rgb(245, 69, 40)" stroke-width="1"></path>
    <path d="M80.890625,173.78125,220.890625,111.546875" stroke="rgb(245, 70, 40)" stroke-width="1"></path>
    <path d="M80.78125,173.5625,220.78125,112.09375" stroke="rgb(246, 71, 40)" stroke-width="1"></path>
    <path d="M80.671875,173.34375,220.671875,112.640625" stroke="rgb(246, 72, 40)" stroke-width="1"></path>
    <path d="M80.5625,173.125,220.5625,113.1875" stroke="rgb(246, 73, 41)" stroke-width="1"></path>
    <path d="M80.453125,172.90625,220.453125,113.734375" stroke="rgb(246, 74, 41)" stroke-width="1"></path>
    <path d="M80.34375,172.6875,220.34375,114.28125" stroke="rgb(247, 75, 41)" stroke-width="1"></path>
    <path d="M80.234375,172.46875,220.234375,114.828125" stroke="rgb(247, 76, 42)" stroke-width="1"></path>
    <path d="M80.125,172.25,220.125,115.375" stroke="rgb(247, 77, 42)" stroke-width="1"></path>
    <path d="M80.015625,172.03125,220.015625,115.921875" stroke="rgb(248, 78, 42)" stroke-width="1"></path>
    <path d="M79.90625,171.8125,219.90625,116.46875" stroke="rgb(248, 79, 42)" stroke-width="1"></path>
    <path d="M79.796875,171.59375,219.796875,117.015625" stroke="rgb(248, 80, 43)" stroke-width="1"></path>
    <path d="M79.6875,171.375,219.6875,117.5625" stroke="rgb(248, 81, 43)" stroke-width="1"></path>
    <path d="M79.578125,171.15625,219.578125,118.109375" stroke="rgb(249, 82, 43)" stroke-width="1"></path>
    <path d="M79.46875,170.9375,219.46875,118.65625" stroke="rgb(249, 83, 44)" stroke-width="1"></path>
    <path d="M79.359375,170.71875,219.359375,119.203125" stroke="rgb(249, 85, 44)" stroke-width="1"></path>
    <path d="M79.25,170.5,219.25,119.75" stroke="rgb(249, 86, 44)" stroke-width="1"></path>
    <path d="M79.140625,170.28125,219.140625,120.296875" stroke="rgb(249, 87, 45)" stroke-width="1"></path>
    <path d="M79.03125,170.0625,219.03125,120.84375" stroke="rgb(250, 88, 45)" stroke-width="1"></path>
    <path d="M78.921875,169.84375,218.921875,121.390625" stroke="rgb(250, 89, 45)" stroke-width="1"></path>
    <path d="M78.8125,169.625,218.8125,121.9375" stroke="rgb(250, 90, 46)" stroke-width="1"></path>
    <path d="M78.703125,169.40625,218.703125,122.484375" stroke="rgb(250, 91, 46)" stroke-width="1"></path>
    <path d="M78.59375,169.1875,218.59375,123.03125" stroke="rgb(250, 92, 46)" stroke-width="1"></path>
    <path d="M78.484375,168.96875,218.484375,123.578125" stroke="rgb(250, 93, 46)" stroke-width="1"></path>
    <path d="M78.375,168.75,218.375,124.125" stroke="rgb(251, 94, 47)" stroke-width="1"></path>
    <path d="M78.265625,168.53125,218.265625,124.671875" stroke="rgb(251, 96, 47)" stroke-width="1"></path>
    <path d="M78.15625,168.3125,218.15625,125.21875" stroke="rgb(251, 97, 47)" stroke-width="1"></path>
    <path d="M78.046875,168.09375,218.046875,125.765625" stroke="rgb(251, 98, 48)" stroke-width="1"></path>
    <path d="M77.9375,167.875,217.9375,126.3125" stroke="rgb(251, 99, 48)" stroke-width="1"></path>
    <path d="M77.828125,167.65625,217.828125,126.859375" stroke="rgb(251, 100, 48)" stroke-width="1"></path>
    <path d="M77.71875,167.4375,217.71875,127.40625" stroke="rgb(251, 101, 49)" stroke-width="1"></path>
    <path d="M77.609375,167.21875,217.609375,127.953125" stroke="rgb(251, 102, 49)" stroke-width="1"></path>
    <path d="M77.5,167,217.5,128.5" stroke="rgb(252, 103, 49)" stroke-width="1"></path>
    <path d="M77.390625,166.78125,217.390625,129.046875" stroke="rgb(252, 104, 50)" stroke-width="1"></path>
    <path d="M77.28125,166.5625,217.28125,129.59375" stroke="rgb(252, 106, 50)" stroke-width="1"></path>
    <path d="M77.171875,166.34375,217.171875,130.140625" stroke="rgb(252, 107, 50)" stroke-width="1"></path>
    <path d="M77.0625,166.125,217.0625,130.6875" stroke="rgb(252, 108, 51)" stroke-width="1"></path>
    <path d="M76.953125,165.90625,216.953125,131.234375" stroke="rgb(252, 109, 51)" stroke-width="1"></path>
    <path d="M76.84375,165.6875,216.84375,131.78125" stroke="rgb(252, 110, 51)" stroke-width="1"></path>
    <path d="M76.734375,165.46875,216.734375,132.328125" stroke="rgb(252, 111, 52)" stroke-width="1"></path>
    <path d="M76.625,165.25,216.625,132.875" stroke="rgb(252, 112, 52)" stroke-width="1"></path>
    <path d="M76.515625,165.03125,216.515625,133.421875" stroke="rgb(252, 113, 52)" stroke-width="1"></path>
    <path d="M76.40625,164.8125,216.40625,133.96875" stroke="rgb(252, 114, 53)" stroke-width="1"></path>
    <path d="M76.296875,164.59375,216.296875,134.515625" stroke="rgb(252, 115, 53)" stroke-width="1"></path>
    <path d="M76.1875,164.375,216.1875,135.0625" stroke="rgb(252, 116, 53)" stroke-width="1"></path>
    <path d="M76.078125,164.15625,216.078125,135.609375" stroke="rgb(252, 117, 54)" stroke-width="1"></path>
    <path d="M75.96875,163.9375,215.96875,136.15625" stroke="rgb(253, 119, 54)" stroke-width="1"></path>
    <path d="M75.859375,163.71875,215.859375,136.703125" stroke="rgb(253, 120, 54)" stroke-width="1"></path>
    <path d="M75.75,163.5,215.75,137.25" stroke="rgb(253, 121, 55)" stroke-width="1"></path>
    <path d="M75.640625,163.28125,215.640625,137.796875" stroke="rgb(253, 122, 55)" stroke-width="1"></path>
    <path d="M75.53125,163.0625,215.53125,138.34375" stroke="rgb(253, 123, 55)" stroke-width="1"></path>
    <path d="M75.421875,162.84375,215.421875,138.890625" stroke="rgb(253, 124, 55)" stroke-width="1"></path>
    <path d="M75.3125,162.625,215.3125,139.4375" stroke="rgb(253, 125, 56)" stroke-width="1"></path>
    <path d="M75.203125,162.40625,215.203125,139.984375" stroke="rgb(253, 126, 56)" stroke-width="1"></path>
    <path d="M75.09375,162.1875,215.09375,140.53125" stroke="rgb(253, 127, 56)" stroke-width="1"></path>
    <path d="M74.984375,161.96875,214.984375,141.078125" stroke="rgb(253, 128, 57)" stroke-width="1"></path>
    <path d="M74.875,161.75,214.875,141.625" stroke="rgb(253, 129, 57)" stroke-width="1"></path>
    <path d="M74.765625,161.53125,214.765625,142.171875" stroke="rgb(253, 130, 57)" stroke-width="1"></path>
    <path d="M74.65625,161.3125,214.65625,142.71875" stroke="rgb(253, 131, 58)" stroke-width="1"></path>
    <path d="M74.546875,161.09375,214.546875,143.265625" stroke="rgb(253, 132, 58)" stroke-width="1"></path>
    <path d="M74.4375,160.875,214.4375,143.8125" stroke="rgb(253, 133, 58)" stroke-width="1"></path>
    <path d="M74.328125,160.65625,214.328125,144.359375" stroke="rgb(253, 134, 59)" stroke-width="1"></path>
    <path d="M74.21875,160.4375,214.21875,144.90625" stroke="rgb(253, 135, 59)" stroke-width="1"></path>
    <path d="M74.109375,160.21875,214.109375,145.453125" stroke="rgb(253, 136, 59)" stroke-width="1"></path>
    <path d="M74,160,214,146" stroke="rgb(253, 137, 60)" stroke-width="1"></path>
    <path d="M73.890625,159.78125,213.890625,146.546875" stroke="rgb(253, 138, 60)" stroke-width="1"></path>
    <path d="M73.78125,159.5625,213.78125,147.09375" stroke="rgb(253, 139, 60)" stroke-width="1"></path>
    <path d="M73.671875,159.34375,213.671875,147.640625" stroke="rgb(253, 139, 61)" stroke-width="1"></path>
    <path d="M73.5625,159.125,213.5625,148.1875" stroke="rgb(253, 140, 61)" stroke-width="1"></path>
    <path d="M73.453125,158.90625,213.453125,148.734375" stroke="rgb(253, 141, 61)" stroke-width="1"></path>
    <path d="M73.34375,158.6875,213.34375,149.28125" stroke="rgb(253, 142, 62)" stroke-width="1"></path>
    <path d="M73.234375,158.46875,213.234375,149.828125" stroke="rgb(253, 143, 62)" stroke-width="1"></path>
    <path d="M73.125,158.25,213.125,150.375" stroke="rgb(253, 144, 62)" stroke-width="1"></path>
    <path d="M73.015625,158.03125,213.015625,150.921875" stroke="rgb(253, 145, 63)" stroke-width="1"></path>
    <path d="M72.90625,157.8125,212.90625,151.46875" stroke="rgb(253, 146, 63)" stroke-width="1"></path>
    <path d="M72.796875,157.59375,212.796875,152.015625" stroke="rgb(253, 146, 63)" stroke-width="1"></path>
    <path d="M72.6875,157.375,212.6875,152.5625" stroke="rgb(253, 147, 63)" stroke-width="1"></path>
    <path d="M72.578125,157.15625,212.578125,153.109375" stroke="rgb(253, 148, 64)" stroke-width="1"></path>
    <path d="M72.46875,156.9375,212.46875,153.65625" stroke="rgb(253, 149, 64)" stroke-width="1"></path>
    <path d="M72.359375,156.71875,212.359375,154.203125" stroke="rgb(253, 150, 64)" stroke-width="1"></path>
    <path d="M72.25,156.5,212.25,154.75" stroke="rgb(253, 151, 65)" stroke-width="1"></path>
    <path d="M72.140625,156.28125,212.140625,155.296875" stroke="rgb(253, 151, 65)" stroke-width="1"></path>
    <path d="M72.03125,156.0625,212.03125,155.84375" stroke="rgb(253, 152, 65)" stroke-width="1"></path>
    <path d="M71.921875,155.84375,211.921875,156.390625" stroke="rgb(253, 153, 66)" stroke-width="1"></path>
    <path d="M71.8125,155.625,211.8125,156.9375" stroke="rgb(253, 154, 66)" stroke-width="1"></path>
    <path d="M71.703125,155.40625,211.703125,157.484375" stroke="rgb(253, 155, 66)" stroke-width="1"></path>
    <path d="M71.59375,155.1875,211.59375,158.03125" stroke="rgb(253, 155, 67)" stroke-width="1"></path>
    <path d="M71.484375,154.96875,211.484375,158.578125" stroke="rgb(253, 156, 67)" stroke-width="1"></path>
    <path d="M71.375,154.75,211.375,159.125" stroke="rgb(253, 157, 68)" stroke-width="1"></path>
    <path d="M71.265625,154.53125,211.265625,159.671875" stroke="rgb(253, 158, 68)" stroke-width="1"></path>
    <path d="M71.15625,154.3125,211.15625,160.21875" stroke="rgb(253, 158, 68)" stroke-width="1"></path>
    <path d="M71.046875,154.09375,211.046875,160.765625" stroke="rgb(253, 159, 69)" stroke-width="1"></path>
    <path d="M70.9375,153.875,210.9375,161.3125" stroke="rgb(254, 160, 69)" stroke-width="1"></path>
    <path d="M70.828125,153.65625,210.828125,161.859375" stroke="rgb(254, 161, 69)" stroke-width="1"></path>
    <path d="M70.71875,153.4375,210.71875,162.40625" stroke="rgb(254, 162, 70)" stroke-width="1"></path>
    <path d="M70.609375,153.21875,210.609375,162.953125" stroke="rgb(254, 162, 70)" stroke-width="1"></path>
    <path d="M70.5,153,210.5,163.5" stroke="rgb(254, 163, 71)" stroke-width="1"></path>
    <path d="M70.390625,152.78125,210.390625,164.046875" stroke="rgb(254, 164, 71)" stroke-width="1"></path>
    <path d="M70.28125,152.5625,210.28125,164.59375" stroke="rgb(254, 164, 71)" stroke-width="1"></path>
    <path d="M70.171875,152.34375,210.171875,165.140625" stroke="rgb(254, 165, 72)" stroke-width="1"></path>
    <path d="M70.0625,152.125,210.0625,165.6875" stroke="rgb(254, 166, 72)" stroke-width="1"></path>
    <path d="M69.953125,151.90625,209.953125,166.234375" stroke="rgb(254, 167, 73)" stroke-width="1"></path>
    <path d="M69.84375,151.6875,209.84375,166.78125" stroke="rgb(254, 167, 73)" stroke-width="1"></path>
    <path d="M69.734375,151.46875,209.734375,167.328125" stroke="rgb(254, 168, 73)" stroke-width="1"></path>
    <path d="M69.625,151.25,209.625,167.875" stroke="rgb(254, 169, 74)" stroke-width="1"></path>
    <path d="M69.515625,151.03125,209.515625,168.421875" stroke="rgb(254, 170, 74)" stroke-width="1"></path>
    <path d="M69.40625,150.8125,209.40625,168.96875" stroke="rgb(254, 170, 75)" stroke-width="1"></path>
    <path d="M69.296875,150.59375,209.296875,169.515625" stroke="rgb(254, 171, 75)" stroke-width="1"></path>
    <path d="M69.1875,150.375,209.1875,170.0625" stroke="rgb(254, 172, 76)" stroke-width="1"></path>
    <path d="M69.078125,150.15625,209.078125,170.609375" stroke="rgb(254, 172, 76)" stroke-width="1"></path>
    <path d="M68.96875,149.9375,208.96875,171.15625" stroke="rgb(254, 173, 77)" stroke-width="1"></path>
    <path d="M68.859375,149.71875,208.859375,171.703125" stroke="rgb(254, 174, 77)" stroke-width="1"></path>
    <path d="M68.75,149.5,208.75,172.25" stroke="rgb(254, 175, 78)" stroke-width="1"></path>
    <path d="M68.640625,149.28125,208.640625,172.796875" stroke="rgb(254, 175, 78)" stroke-width="1"></path>
    <path d="M68.53125,149.0625,208.53125,173.34375" stroke="rgb(254, 176, 79)" stroke-width="1"></path>
    <path d="M68.421875,148.84375,208.421875,173.890625" stroke="rgb(254, 177, 79)" stroke-width="1"></path>
    <path d="M68.3125,148.625,208.3125,174.4375" stroke="rgb(254, 177, 80)" stroke-width="1"></path>
    <path d="M68.203125,148.40625,208.203125,174.984375" stroke="rgb(254, 178, 80)" stroke-width="1"></path>
    <path d="M68.09375,148.1875,208.09375,175.53125" stroke="rgb(254, 179, 81)" stroke-width="1"></path>
    <path d="M67.984375,147.96875,207.984375,176.078125" stroke="rgb(254, 180, 81)" stroke-width="1"></path>
    <path d="M67.875,147.75,207.875,176.625" stroke="rgb(254, 180, 82)" stroke-width="1"></path>
    <path d="M67.765625,147.53125,207.765625,177.171875" stroke="rgb(254, 181, 82)" stroke-width="1"></path>
    <path d="M67.65625,147.3125,207.65625,177.71875" stroke="rgb(254, 182, 83)" stroke-width="1"></path>
    <path d="M67.546875,147.09375,207.546875,178.265625" stroke="rgb(254, 182, 84)" stroke-width="1"></path>
    <path d="M67.4375,146.875,207.4375,178.8125" stroke="rgb(254, 183, 84)" stroke-width="1"></path>
    <path d="M67.328125,146.65625,207.328125,179.359375" stroke="rgb(254, 184, 85)" stroke-width="1"></path>
    <path d="M67.21875,146.4375,207.21875,179.90625" stroke="rgb(254, 185, 85)" stroke-width="1"></path>
    <path d="M67.109375,146.21875,207.109375,180.453125" stroke="rgb(254, 185, 86)" stroke-width="1"></path>
    <path d="M67,146,207,181" stroke="rgb(254, 186, 87)" stroke-width="1"></path>
    <path d="M66.890625,145.78125,206.890625,181.546875" stroke="rgb(254, 187, 87)" stroke-width="1"></path>
    <path d="M66.78125,145.5625,206.78125,182.09375" stroke="rgb(254, 187, 88)" stroke-width="1"></path>
    <path d="M66.671875,145.34375,206.671875,182.640625" stroke="rgb(254, 188, 89)" stroke-width="1"></path>
    <path d="M66.5625,145.125,206.5625,183.1875" stroke="rgb(254, 189, 89)" stroke-width="1"></path>
    <path d="M66.453125,144.90625,206.453125,183.734375" stroke="rgb(254, 189, 90)" stroke-width="1"></path>
    <path d="M66.34375,144.6875,206.34375,184.28125" stroke="rgb(254, 190, 91)" stroke-width="1"></path>
    <path d="M66.234375,144.46875,206.234375,184.828125" stroke="rgb(254, 191, 91)" stroke-width="1"></path>
    <path d="M66.125,144.25,206.125,185.375" stroke="rgb(254, 192, 92)" stroke-width="1"></path>
    <path d="M66.015625,144.03125,206.015625,185.921875" stroke="rgb(254, 192, 93)" stroke-width="1"></path>
    <path d="M65.90625,143.8125,205.90625,186.46875" stroke="rgb(254, 193, 93)" stroke-width="1"></path>
    <path d="M65.796875,143.59375,205.796875,187.015625" stroke="rgb(254, 194, 94)" stroke-width="1"></path>
    <path d="M65.6875,143.375,205.6875,187.5625" stroke="rgb(254, 194, 95)" stroke-width="1"></path>
    <path d="M65.578125,143.15625,205.578125,188.109375" stroke="rgb(254, 195, 95)" stroke-width="1"></path>
    <path d="M65.46875,142.9375,205.46875,188.65625" stroke="rgb(254, 196, 96)" stroke-width="1"></path>
    <path d="M65.359375,142.71875,205.359375,189.203125" stroke="rgb(254, 196, 97)" stroke-width="1"></path>
    <path d="M65.25,142.5,205.25,189.75" stroke="rgb(254, 197, 98)" stroke-width="1"></path>
    <path d="M65.140625,142.28125,205.140625,190.296875" stroke="rgb(254, 198, 98)" stroke-width="1"></path>
    <path d="M65.03125,142.0625,205.03125,190.84375" stroke="rgb(254, 199, 99)" stroke-width="1"></path>
    <path d="M64.921875,141.84375,204.921875,191.390625" stroke="rgb(254, 199, 100)" stroke-width="1"></path>
    <path d="M64.8125,141.625,204.8125,191.9375" stroke="rgb(254, 200, 100)" stroke-width="1"></path>
    <path d="M64.703125,141.40625,204.703125,192.484375" stroke="rgb(254, 201, 101)" stroke-width="1"></path>
    <path d="M64.59375,141.1875,204.59375,193.03125" stroke="rgb(254, 201, 102)" stroke-width="1"></path>
    <path d="M64.484375,140.96875,204.484375,193.578125" stroke="rgb(254, 202, 103)" stroke-width="1"></path>
    <path d="M64.375,140.75,204.375,194.125" stroke="rgb(254, 202, 103)" stroke-width="1"></path>
    <path d="M64.265625,140.53125,204.265625,194.671875" stroke="rgb(254, 203, 104)" stroke-width="1"></path>
    <path d="M64.15625,140.3125,204.15625,195.21875" stroke="rgb(254, 204, 105)" stroke-width="1"></path>
    <path d="M64.046875,140.09375,204.046875,195.765625" stroke="rgb(254, 204, 106)" stroke-width="1"></path>
    <path d="M63.9375,139.875,203.9375,196.3125" stroke="rgb(254, 205, 107)" stroke-width="1"></path>
    <path d="M63.828125,139.65625,203.828125,196.859375" stroke="rgb(254, 206, 107)" stroke-width="1"></path>
    <path d="M63.71875,139.4375,203.71875,197.40625" stroke="rgb(254, 206, 108)" stroke-width="1"></path>
    <path d="M63.609375,139.21875,203.609375,197.953125" stroke="rgb(254, 207, 109)" stroke-width="1"></path>
    <path d="M63.5,139,203.5,198.5" stroke="rgb(254, 208, 110)" stroke-width="1"></path>
    <path d="M63.390625,138.78125,203.390625,199.046875" stroke="rgb(254, 208, 110)" stroke-width="1"></path>
    <path d="M63.28125,138.5625,203.28125,199.59375" stroke="rgb(254, 209, 111)" stroke-width="1"></path>
    <path d="M63.171875,138.34375,203.171875,200.140625" stroke="rgb(254, 209, 112)" stroke-width="1"></path>
    <path d="M63.0625,138.125,203.0625,200.6875" stroke="rgb(254, 210, 113)" stroke-width="1"></path>
    <path d="M62.953125,137.90625,202.953125,201.234375" stroke="rgb(254, 211, 114)" stroke-width="1"></path>
    <path d="M62.84375,137.6875,202.84375,201.78125" stroke="rgb(254, 211, 114)" stroke-width="1"></path>
    <path d="M62.734375,137.46875,202.734375,202.328125" stroke="rgb(254, 212, 115)" stroke-width="1"></path>
    <path d="M62.625,137.25,202.625,202.875" stroke="rgb(254, 212, 116)" stroke-width="1"></path>
    <path d="M62.515625,137.03125,202.515625,203.421875" stroke="rgb(254, 213, 117)" stroke-width="1"></path>
    <path d="M62.40625,136.8125,202.40625,203.96875" stroke="rgb(254, 213, 117)" stroke-width="1"></path>
    <path d="M62.296875,136.59375,202.296875,204.515625" stroke="rgb(254, 214, 118)" stroke-width="1"></path>
    <path d="M62.1875,136.375,202.1875,205.0625" stroke="rgb(254, 215, 119)" stroke-width="1"></path>
    <path d="M62.078125,136.15625,202.078125,205.609375" stroke="rgb(254, 215, 120)" stroke-width="1"></path>
    <path d="M61.96875,135.9375,201.96875,206.15625" stroke="rgb(254, 216, 121)" stroke-width="1"></path>
    <path d="M61.859375,135.71875,201.859375,206.703125" stroke="rgb(254, 216, 121)" stroke-width="1"></path>
    <path d="M61.75,135.5,201.75,207.25" stroke="rgb(254, 217, 122)" stroke-width="1"></path>
    <path d="M61.640625,135.28125,201.640625,207.796875" stroke="rgb(254, 217, 123)" stroke-width="1"></path>
    <path d="M61.53125,135.0625,201.53125,208.34375" stroke="rgb(254, 218, 124)" stroke-width="1"></path>
    <path d="M61.421875,134.84375,201.421875,208.890625" stroke="rgb(254, 218, 125)" stroke-width="1"></path>
    <path d="M61.3125,134.625,201.3125,209.4375" stroke="rgb(254, 219, 125)" stroke-width="1"></path>
    <path d="M61.203125,134.40625,201.203125,209.984375" stroke="rgb(254, 219, 126)" stroke-width="1"></path>
    <path d="M61.09375,134.1875,201.09375,210.53125" stroke="rgb(254, 220, 127)" stroke-width="1"></path>
    <path d="M60.984375,133.96875,200.984375,211.078125" stroke="rgb(254, 220, 128)" stroke-width="1"></path>
    <path d="M60.875,133.75,200.875,211.625" stroke="rgb(254, 221, 129)" stroke-width="1"></path>
    <path d="M60.765625,133.53125,200.765625,212.171875" stroke="rgb(254, 221, 129)" stroke-width="1"></path>
    <path d="M60.65625,133.3125,200.65625,212.71875" stroke="rgb(254, 222, 130)" stroke-width="1"></path>
    <path d="M60.546875,133.09375,200.546875,213.265625" stroke="rgb(254, 222, 131)" stroke-width="1"></path>
    <path d="M60.4375,132.875,200.4375,213.8125" stroke="rgb(254, 223, 132)" stroke-width="1"></path>
    <path d="M60.328125,132.65625,200.328125,214.359375" stroke="rgb(254, 223, 132)" stroke-width="1"></path>
    <path d="M60.21875,132.4375,200.21875,214.90625" stroke="rgb(254, 223, 133)" stroke-width="1"></path>
    <path d="M60.109375,132.21875,200.109375,215.453125" stroke="rgb(254, 224, 134)" stroke-width="1"></path>
    <path d="M60,132,200,216" stroke="rgb(254, 224, 135)" stroke-width="1"></path>
  </g>
</svg>