<svg width="360" height="93.165" viewBox="0 0 360 93.165" xmlns="http://www.w3.org/2000/svg">
  <path d="M149.151,16.459L149.151,18.066L147.374,18.066C146.007,18.066,145.562,18.407,145.562,19.706L145.562,33.513C145.562,37.853,147.716,39.836,152.398,39.836C155.474,39.836,157.524,38.742,158.481,36.657C158.925,35.700,158.994,34.128,158.994,31.907L158.994,21.141C158.994,19.057,158.549,18.066,156.533,18.066L155.030,18.066L155.030,16.459L164.428,16.459L164.428,18.066L163.163,18.066C161.215,18.066,160.668,18.954,160.668,21.141L160.668,32.044C160.668,38.742,158.208,41.715,151.202,41.715C145.015,41.715,141.872,38.947,141.872,33.479L141.872,19.706C141.872,18.407,141.496,18.066,140.060,18.066L138.078,18.066L138.078,16.459L149.151,16.459Z" style="fill: rgb(255, 255, 255);" />
  <path d="M165.963,39.665C169.107,39.425,169.620,38.332,169.620,35.290L169.620,19.160C169.107,18.237,168.185,18.031,166.544,18.031L165.963,18.031L165.963,16.459L172.627,16.459L186.229,35.085L186.229,22.303C186.229,18.988,185.580,17.963,182.162,17.929L182.162,16.459L191.697,16.459L191.697,17.929C188.621,18.066,187.972,19.160,187.972,22.303L187.972,41.749L186.605,41.749L171.397,21.004L171.397,35.290C171.397,38.503,172.115,39.665,175.464,39.665L175.464,41.134L165.963,41.134L165.963,39.665Z" style="fill: rgb(255, 255, 255);" />
  <path d="M193.984,39.528L195.830,39.528C197.230,39.528,197.675,39.186,197.675,37.887L197.675,19.706C197.675,18.407,197.230,18.066,195.830,18.066L193.984,18.066L193.984,16.459L205.126,16.459L205.126,18.066L203.280,18.066C201.878,18.066,201.469,18.407,201.469,19.706L201.469,37.887C201.469,39.186,201.878,39.528,203.280,39.528L205.126,39.528L205.126,41.134L193.984,41.134L193.984,39.528Z" style="fill: rgb(255, 255, 255);" />
  <path d="M217.906,41.749L209.259,19.569C208.747,18.237,208.507,18.066,206.799,18.066L206.046,18.066L206.046,16.459L216.539,16.459L216.539,18.066L215.275,18.066C213.873,18.066,213.224,18.202,213.224,18.988C213.224,19.228,213.292,19.672,213.497,20.184L219.546,35.632L224.912,21.825C225.219,21.004,225.356,20.321,225.356,19.877C225.356,18.612,224.570,18.066,222.895,18.066L221.939,18.066L221.939,16.459L230.858,16.459L230.858,18.066C230.790,18.066,230.688,18.066,230.619,18.066C228.638,18.066,227.954,18.920,227.168,20.970L219.238,41.749L217.906,41.749Z" style="fill: rgb(255, 255, 255);" />
  <path d="M231.505,39.528L233.282,39.528C234.650,39.528,235.094,39.221,235.094,37.887L235.094,19.706C235.094,18.373,234.650,18.066,233.282,18.066L231.505,18.066L231.505,16.459L251.498,16.459L251.943,25.174L250.473,25.174C250.029,22.166,249.141,20.184,248.081,19.262C246.885,18.270,244.868,17.997,241.724,17.997C239.468,17.997,238.819,18.100,238.819,19.706L238.819,27.532C238.990,27.532,239.127,27.532,239.298,27.532C242.818,27.532,244.151,26.370,244.458,22.816L245.894,22.816L245.894,33.684L244.458,33.684C244.151,30.130,242.852,29.002,239.298,29.002C239.161,29.002,238.990,29.002,238.819,29.002L238.819,37.887C238.819,39.562,239.571,39.631,241.998,39.631C244.868,39.631,246.919,39.425,248.286,38.742C249.859,37.956,250.780,35.666,251.498,31.771L252.797,31.771L252.285,41.134L231.505,41.134L231.505,39.528Z" style="fill: rgb(255, 255, 255);" />
  <path d="M262.604,27.532L264.278,27.600C264.689,27.635,265.064,27.635,265.440,27.635C269.986,27.635,272.002,26.234,272.002,22.748C272.002,19.296,270.362,17.997,266.569,17.997L264.346,17.997C262.911,17.997,262.604,18.339,262.604,19.501ZM255.290,39.528L257.067,39.528C258.434,39.528,258.879,39.221,258.879,37.887L258.879,19.706C258.879,18.373,258.434,18.066,257.067,18.066L255.290,18.066L255.290,16.459L268.960,16.459C273.095,16.459,275.864,18.886,275.864,22.508C275.864,26.097,273.335,28.113,268.311,28.660C271.079,29.036,272.515,30.369,273.130,33.068L274.053,36.931C274.394,38.434,274.839,39.186,275.591,39.186C276.513,39.186,276.924,38.024,276.992,35.598L278.291,35.598C278.291,35.871,278.325,36.145,278.325,36.384C278.325,39.870,276.787,41.749,274.189,41.749C271.489,41.749,270.499,40.246,270.123,36.931L269.746,33.513C269.405,30.232,267.730,29.173,264.449,29.173L262.604,29.173L262.604,37.887C262.604,39.221,263.014,39.528,264.381,39.528L266.500,39.528L266.500,41.134L255.290,41.134L255.290,39.528Z" style="fill: rgb(255, 255, 255);" />
  <path d="M281.296,41.545L280.099,41.545L279.928,31.634L281.329,31.634C282.355,37.272,285.226,40.211,289.601,40.211C293.325,40.211,295.376,38.332,295.376,35.324C295.376,33.889,294.829,32.761,293.872,32.078C292.676,31.224,290.763,30.882,288.268,30.198C282.799,28.728,280.167,27.361,280.167,22.850C280.167,18.612,283.004,15.878,287.448,15.878C289.942,15.878,292.130,16.698,293.838,18.270L295.171,16.220L296.435,16.220L296.811,25.106L295.478,25.106C294.180,20.014,291.480,17.450,287.448,17.450C284.440,17.450,282.731,18.954,282.731,21.585C282.731,24.867,285.294,25.242,289.840,26.370C292.300,26.985,294.351,27.498,295.923,28.934C297.256,30.164,298.008,32.010,298.008,34.196C298.008,38.947,295.000,41.749,289.532,41.749C286.866,41.749,284.372,40.793,282.731,39.186L281.296,41.545Z" style="fill: rgb(255, 255, 255);" />
  <path d="M300.227,39.528L302.073,39.528C303.474,39.528,303.918,39.186,303.918,37.887L303.918,19.706C303.918,18.407,303.474,18.066,302.073,18.066L300.227,18.066L300.227,16.459L311.369,16.459L311.369,18.066L309.523,18.066C308.122,18.066,307.712,18.407,307.712,19.706L307.712,37.887C307.712,39.186,308.122,39.528,309.523,39.528L311.369,39.528L311.369,41.134L300.227,41.134L300.227,39.528Z" style="fill: rgb(255, 255, 255);" />
  <path d="M328.182,39.528L330.370,39.528L330.370,41.134L318.681,41.134L318.681,39.528L320.868,39.528C322.235,39.528,322.679,39.221,322.679,37.887L322.679,19.569C322.679,17.758,322.133,17.758,320.424,17.758C317.143,17.758,315.878,20.219,315.092,25.926L313.794,25.926L314.272,16.459L334.778,16.459L335.290,25.926L333.992,25.926C333.069,19.604,331.907,17.758,327.977,17.758C326.712,17.758,326.405,18.168,326.405,19.569L326.405,37.887C326.405,39.221,326.815,39.528,328.182,39.528Z" style="fill: rgb(255, 255, 255);" />
  <path d="M351.966,39.528L354.085,39.528L354.085,41.134L342.499,41.134L342.499,39.528L344.652,39.528C345.985,39.528,346.463,39.186,346.463,37.887L346.463,30.916L339.560,19.945C338.740,18.612,338.364,18.066,336.758,18.066L336.109,18.066L336.109,16.459L346.635,16.459L346.635,18.066L345.233,18.066C344.071,18.066,343.456,18.270,343.456,18.851C343.456,19.193,343.661,19.535,343.968,20.048L349.403,28.626L353.880,20.833C354.154,20.356,354.290,19.945,354.290,19.501C354.290,18.544,353.504,18.066,351.932,18.066L350.975,18.066L350.975,16.459L359.997,16.459L359.997,18.066L359.348,18.066C357.776,18.066,357.297,18.612,356.511,19.945L350.189,30.745L350.189,37.887C350.189,39.186,350.633,39.528,351.966,39.528Z" style="fill: rgb(255, 255, 255);" />
  <path d="M152.534,75.797C157.456,75.797,159.848,72.004,159.848,64.416C159.848,56.761,157.558,53.036,152.534,53.036C147.579,53.036,145.221,56.761,145.221,64.416C145.221,72.038,147.544,75.797,152.534,75.797ZZM143.991,55.257C146.177,52.762,149.117,51.464,152.534,51.464C156.020,51.464,158.754,52.694,161.010,55.223C163.163,57.650,164.257,60.726,164.257,64.416C164.257,68.073,163.368,70.910,161.249,73.371C158.959,76.036,156.088,77.335,152.534,77.335C148.980,77.335,146.143,76.071,143.820,73.371C141.701,70.910,140.778,68.039,140.778,64.416C140.778,60.760,141.906,57.615,143.991,55.257Z" style="fill: rgb(255, 255, 255);" />
  <path d="M164.528,75.148L166.305,75.148C167.672,75.148,168.116,74.840,168.116,73.507L168.116,55.326C168.116,53.993,167.672,53.685,166.305,53.685L164.528,53.685L164.528,52.079L184.520,52.079L184.965,60.794L183.495,60.794C183.051,57.787,182.163,55.804,181.103,54.881C179.907,53.890,177.890,53.617,174.746,53.617C172.491,53.617,171.842,53.719,171.842,55.326L171.842,63.152C172.013,63.152,172.149,63.152,172.320,63.152C175.840,63.152,177.173,61.990,177.480,58.436L178.916,58.436L178.916,69.304L177.480,69.304C177.173,65.749,175.874,64.622,172.320,64.622C172.183,64.622,172.013,64.622,171.842,64.622L171.842,73.507C171.842,74.840,172.252,75.148,173.619,75.148L175.874,75.148L175.874,76.754L164.528,76.754L164.528,75.148Z" style="fill: rgb(255, 255, 255);" />
  <path d="M201.639,70.910C201.639,74.157,202.357,75.250,205.706,75.285L205.706,76.754L195.796,76.754L195.796,75.285C199.247,75.250,199.896,74.123,199.896,70.910L199.896,55.326C199.896,53.993,199.452,53.685,198.085,53.685L196.068,53.685L196.068,52.079L204.613,52.079L211.243,70.944L217.668,52.079L226.007,52.079L226.007,53.685L224.195,53.685C222.828,53.685,222.418,53.993,222.418,55.326L222.418,73.507C222.418,74.840,222.828,75.148,224.195,75.148L226.007,75.148L226.007,76.754L214.934,76.754L214.934,75.148L216.984,75.148C218.352,75.148,218.795,74.840,218.795,73.507L218.795,54.266L211.140,76.754L209.807,76.754L201.639,54.266L201.639,70.910Z" style="fill: rgb(255, 255, 255);" />
  <path d="M228.567,75.148L230.412,75.148C231.813,75.148,232.258,74.806,232.258,73.507L232.258,55.326C232.258,54.027,231.813,53.685,230.412,53.685L228.567,53.685L228.567,52.079L239.708,52.079L239.708,53.685L237.863,53.685C236.462,53.685,236.052,54.027,236.052,55.326L236.052,73.507C236.052,74.806,236.462,75.148,237.863,75.148L239.708,75.148L239.708,76.754L228.567,76.754L228.567,75.148Z" style="fill: rgb(255, 255, 255);" />
  <path d="M250.951,57.069L247.055,66.980L255.018,66.980ZM252.591,51.669L261.306,73.439C261.853,74.772,262.263,75.215,263.664,75.215C263.869,75.215,264.109,75.208,264.348,75.208L264.348,76.754L254.129,76.754L254.129,75.114L255.428,75.114C256.863,75.114,257.513,75.011,257.513,74.225C257.513,73.952,257.410,73.541,257.205,73.029L255.633,68.723L246.440,68.723L245.380,71.388C245.073,72.174,244.902,72.995,244.902,73.439C244.902,74.533,245.756,75.114,247.397,75.114L248.251,75.114L248.251,76.754L239.433,76.754L239.433,75.148C239.536,75.148,239.605,75.148,239.707,75.148C241.723,75.148,242.407,74.328,243.227,72.243L251.258,51.669L252.591,51.669Z" style="fill: rgb(255, 255, 255);" />
  <path d="M269.575,70.910C269.575,74.157,270.292,75.250,273.641,75.285L273.641,76.754L263.730,76.754L263.730,75.230C267.182,75.196,267.832,74.123,267.832,70.910L267.832,55.326C267.832,53.993,267.387,53.685,266.020,53.685L264.003,53.685L264.003,52.079L272.547,52.079L279.178,70.944L285.603,52.079L293.942,52.079L293.942,53.685L292.131,53.685C290.763,53.685,290.354,53.993,290.354,55.326L290.354,73.507C290.354,74.840,290.763,75.148,292.131,75.148L293.942,75.148L293.942,76.754L282.869,76.754L282.869,75.148L284.919,75.148C286.287,75.148,286.731,74.840,286.731,73.507L286.731,54.266L279.076,76.754L277.743,76.754L269.575,54.266L269.575,70.910Z" style="fill: rgb(255, 255, 255);" />
  <path d="M296.502,75.148L298.348,75.148C299.749,75.148,300.192,74.806,300.192,73.507L300.192,55.326C300.192,54.027,299.749,53.685,298.348,53.685L296.502,53.685L296.502,52.079L307.644,52.079L307.644,53.685L305.798,53.685C304.397,53.685,303.987,54.027,303.987,55.326L303.987,73.507C303.987,74.806,304.397,75.148,305.798,75.148L307.644,75.148L307.644,76.754L296.502,76.754L296.502,75.148Z" style="fill: rgb(255, 255, 255);" />
  <path d="M76.880,14.259L76.963,58.271C76.963,61.089,76.963,69.668,55.358,69.703L53.329,69.708L51.301,69.703C29.695,69.668,29.695,61.089,29.695,58.271L29.778,14.259L0.000,14.259L0.026,64.875C0.026,78.877,39.277,79.966,51.310,79.966L53.132,79.966L53.526,79.966L55.352,79.966C67.382,79.966,106.634,78.877,106.634,64.875L106.660,14.259L76.880,14.259Z" style="fill: rgb(255, 255, 255);" />
  <path d="M79.178,58.271L79.186,16.407L104.445,16.407C104.445,16.407,104.415,63.199,104.415,64.875C104.415,74.064,79.197,77.748,55.352,77.748C55.352,76.590,55.360,73.745,55.360,71.917C67.295,71.900,79.178,69.376,79.178,58.271Z" style="fill: rgb(0, 69, 42);" />
  <path d="M27.482,58.271L27.473,16.407L2.214,16.407C2.214,16.407,2.243,63.199,2.243,64.875C2.243,74.064,27.464,77.748,51.310,77.748C51.310,76.590,51.298,73.745,51.298,71.917C39.365,71.900,27.482,69.376,27.482,58.271Z" style="fill: rgb(243, 96, 24);" />
  <path d="M124.377,93.165L123.071,93.165L123.071,0.002L124.377,0.002L124.377,93.165Z" style="fill: rgb(255, 255, 255);" />
</svg>